<mxfile host="app.diagrams.net" modified="2023-04-26T21:06:22.336Z" agent="Mozilla/5.0 (Windows NT 10.0; Win64; x64) AppleWebKit/537.36 (KHTML, like Gecko) Chrome/112.0.0.0 Safari/537.36" etag="auO791hjfrvDR1BZe5US" version="21.2.2" type="github">
  <diagram name="Page-1" id="c37626ed-c26b-45fb-9056-f9ebc6bb27b6">
    <mxGraphModel dx="4550" dy="2040" grid="1" gridSize="10" guides="1" tooltips="1" connect="1" arrows="1" fold="1" page="1" pageScale="1" pageWidth="1000" pageHeight="700" background="#ffffff" math="0" shadow="1">
      <root>
        <mxCell id="0" />
        <mxCell id="1" parent="0" />
        <mxCell id="DTtLAvjLUg3e7SLb6-8Q-80" value="000-Matriz" style="whiteSpace=wrap;html=1;rounded=1;shadow=0;comic=0;strokeWidth=1;fontFamily=Verdana;fontSize=14;fillColor=#f5f5f5;strokeColor=none;verticalAlign=top;fontStyle=1" vertex="1" parent="1">
          <mxGeometry x="820" y="670" width="290" height="275" as="geometry" />
        </mxCell>
        <mxCell id="DTtLAvjLUg3e7SLb6-8Q-81" value="Cloud" style="ellipse;shape=cloud;whiteSpace=wrap;html=1;rounded=1;shadow=0;comic=0;strokeWidth=1;fontFamily=Verdana;fontSize=12;" vertex="1" parent="1">
          <mxGeometry x="985" y="750" width="50" height="30" as="geometry" />
        </mxCell>
        <mxCell id="DTtLAvjLUg3e7SLb6-8Q-82" value="" style="shape=mxgraph.cisco.routers.router;html=1;dashed=0;fillColor=#036897;strokeColor=#ffffff;strokeWidth=2;verticalLabelPosition=bottom;verticalAlign=top;rounded=1;shadow=0;comic=0;fontFamily=Verdana;fontSize=12;" vertex="1" parent="1">
          <mxGeometry x="885" y="796" width="50" height="39" as="geometry" />
        </mxCell>
        <mxCell id="DTtLAvjLUg3e7SLb6-8Q-83" value="Cloud" style="ellipse;shape=cloud;whiteSpace=wrap;html=1;rounded=1;shadow=0;comic=0;strokeWidth=1;fontFamily=Verdana;fontSize=12;" vertex="1" parent="1">
          <mxGeometry x="985" y="835" width="50" height="30" as="geometry" />
        </mxCell>
        <mxCell id="DTtLAvjLUg3e7SLb6-8Q-84" style="edgeStyle=none;html=1;labelBackgroundColor=none;startFill=0;endArrow=none;endFill=0;strokeWidth=2;fontFamily=Verdana;fontSize=12;exitX=0.07;exitY=0.4;exitDx=0;exitDy=0;exitPerimeter=0;entryX=0.5;entryY=1;entryDx=0;entryDy=0;entryPerimeter=0;rounded=1;" edge="1" parent="1" source="DTtLAvjLUg3e7SLb6-8Q-83" target="DTtLAvjLUg3e7SLb6-8Q-82">
          <mxGeometry relative="1" as="geometry">
            <mxPoint x="1175" y="820" as="sourcePoint" />
            <mxPoint x="935" y="815" as="targetPoint" />
            <Array as="points" />
          </mxGeometry>
        </mxCell>
        <mxCell id="DTtLAvjLUg3e7SLb6-8Q-85" style="edgeStyle=none;html=1;labelBackgroundColor=none;startFill=0;endArrow=none;endFill=0;strokeWidth=2;fontFamily=Verdana;fontSize=12;entryX=0.5;entryY=0;entryDx=0;entryDy=0;entryPerimeter=0;exitX=0.16;exitY=0.55;exitDx=0;exitDy=0;exitPerimeter=0;rounded=1;" edge="1" parent="1" source="DTtLAvjLUg3e7SLb6-8Q-81" target="DTtLAvjLUg3e7SLb6-8Q-82">
          <mxGeometry relative="1" as="geometry">
            <mxPoint x="1014" y="784" as="sourcePoint" />
            <mxPoint x="895" y="770" as="targetPoint" />
            <Array as="points" />
          </mxGeometry>
        </mxCell>
        <mxCell id="DTtLAvjLUg3e7SLb6-8Q-163" value="001 - Carpina" style="whiteSpace=wrap;html=1;rounded=1;shadow=0;comic=0;strokeWidth=1;fontFamily=Verdana;fontSize=14;fillColor=#f5f5f5;strokeColor=none;verticalAlign=top;fontStyle=1" vertex="1" parent="1">
          <mxGeometry x="1680" y="160" width="200" height="200" as="geometry" />
        </mxCell>
        <mxCell id="DTtLAvjLUg3e7SLb6-8Q-164" value="Cloud" style="ellipse;shape=cloud;whiteSpace=wrap;html=1;rounded=1;shadow=0;comic=0;strokeWidth=1;fontFamily=Verdana;fontSize=12;" vertex="1" parent="1">
          <mxGeometry x="1800" y="200" width="50" height="30" as="geometry" />
        </mxCell>
        <mxCell id="DTtLAvjLUg3e7SLb6-8Q-165" value="" style="shape=mxgraph.cisco.routers.router;html=1;dashed=0;fillColor=#036897;strokeColor=#ffffff;strokeWidth=2;verticalLabelPosition=bottom;verticalAlign=top;rounded=1;shadow=0;comic=0;fontFamily=Verdana;fontSize=12;" vertex="1" parent="1">
          <mxGeometry x="1700" y="246" width="50" height="39" as="geometry" />
        </mxCell>
        <mxCell id="DTtLAvjLUg3e7SLb6-8Q-166" value="Cloud" style="ellipse;shape=cloud;whiteSpace=wrap;html=1;rounded=1;shadow=0;comic=0;strokeWidth=1;fontFamily=Verdana;fontSize=12;" vertex="1" parent="1">
          <mxGeometry x="1800" y="285" width="50" height="30" as="geometry" />
        </mxCell>
        <mxCell id="DTtLAvjLUg3e7SLb6-8Q-167" style="edgeStyle=none;html=1;labelBackgroundColor=none;startFill=0;endArrow=none;endFill=0;strokeWidth=2;fontFamily=Verdana;fontSize=12;exitX=0.07;exitY=0.4;exitDx=0;exitDy=0;exitPerimeter=0;entryX=0.5;entryY=1;entryDx=0;entryDy=0;entryPerimeter=0;rounded=1;" edge="1" parent="1" source="DTtLAvjLUg3e7SLb6-8Q-166" target="DTtLAvjLUg3e7SLb6-8Q-165">
          <mxGeometry relative="1" as="geometry">
            <mxPoint x="1990" y="270" as="sourcePoint" />
            <mxPoint x="1750" y="265" as="targetPoint" />
            <Array as="points" />
          </mxGeometry>
        </mxCell>
        <mxCell id="DTtLAvjLUg3e7SLb6-8Q-168" style="edgeStyle=none;html=1;labelBackgroundColor=none;startFill=0;endArrow=none;endFill=0;strokeWidth=2;fontFamily=Verdana;fontSize=12;entryX=0.5;entryY=0;entryDx=0;entryDy=0;entryPerimeter=0;exitX=0.16;exitY=0.55;exitDx=0;exitDy=0;exitPerimeter=0;rounded=1;" edge="1" parent="1" source="DTtLAvjLUg3e7SLb6-8Q-164" target="DTtLAvjLUg3e7SLb6-8Q-165">
          <mxGeometry relative="1" as="geometry">
            <mxPoint x="1829" y="234" as="sourcePoint" />
            <mxPoint x="1710" y="220" as="targetPoint" />
            <Array as="points" />
          </mxGeometry>
        </mxCell>
        <mxCell id="DTtLAvjLUg3e7SLb6-8Q-169" value="002-Vitoria" style="whiteSpace=wrap;html=1;rounded=1;shadow=0;comic=0;strokeWidth=1;fontFamily=Verdana;fontSize=14;fillColor=#f5f5f5;strokeColor=none;verticalAlign=top;fontStyle=1" vertex="1" parent="1">
          <mxGeometry x="1680" y="440" width="200" height="200" as="geometry" />
        </mxCell>
        <mxCell id="DTtLAvjLUg3e7SLb6-8Q-170" value="Cloud" style="ellipse;shape=cloud;whiteSpace=wrap;html=1;rounded=1;shadow=0;comic=0;strokeWidth=1;fontFamily=Verdana;fontSize=12;" vertex="1" parent="1">
          <mxGeometry x="1800" y="480" width="50" height="30" as="geometry" />
        </mxCell>
        <mxCell id="DTtLAvjLUg3e7SLb6-8Q-171" value="" style="shape=mxgraph.cisco.routers.router;html=1;dashed=0;fillColor=#036897;strokeColor=#ffffff;strokeWidth=2;verticalLabelPosition=bottom;verticalAlign=top;rounded=1;shadow=0;comic=0;fontFamily=Verdana;fontSize=12;" vertex="1" parent="1">
          <mxGeometry x="1700" y="526" width="50" height="39" as="geometry" />
        </mxCell>
        <mxCell id="DTtLAvjLUg3e7SLb6-8Q-172" value="Cloud" style="ellipse;shape=cloud;whiteSpace=wrap;html=1;rounded=1;shadow=0;comic=0;strokeWidth=1;fontFamily=Verdana;fontSize=12;" vertex="1" parent="1">
          <mxGeometry x="1800" y="565" width="50" height="30" as="geometry" />
        </mxCell>
        <mxCell id="DTtLAvjLUg3e7SLb6-8Q-173" style="edgeStyle=none;html=1;labelBackgroundColor=none;startFill=0;endArrow=none;endFill=0;strokeWidth=2;fontFamily=Verdana;fontSize=12;exitX=0.07;exitY=0.4;exitDx=0;exitDy=0;exitPerimeter=0;entryX=0.5;entryY=1;entryDx=0;entryDy=0;entryPerimeter=0;rounded=1;" edge="1" parent="1" source="DTtLAvjLUg3e7SLb6-8Q-172" target="DTtLAvjLUg3e7SLb6-8Q-171">
          <mxGeometry relative="1" as="geometry">
            <mxPoint x="1990" y="550" as="sourcePoint" />
            <mxPoint x="1750" y="545" as="targetPoint" />
            <Array as="points" />
          </mxGeometry>
        </mxCell>
        <mxCell id="DTtLAvjLUg3e7SLb6-8Q-174" style="edgeStyle=none;html=1;labelBackgroundColor=none;startFill=0;endArrow=none;endFill=0;strokeWidth=2;fontFamily=Verdana;fontSize=12;entryX=0.5;entryY=0;entryDx=0;entryDy=0;entryPerimeter=0;exitX=0.16;exitY=0.55;exitDx=0;exitDy=0;exitPerimeter=0;rounded=1;" edge="1" parent="1" source="DTtLAvjLUg3e7SLb6-8Q-170" target="DTtLAvjLUg3e7SLb6-8Q-171">
          <mxGeometry relative="1" as="geometry">
            <mxPoint x="1829" y="514" as="sourcePoint" />
            <mxPoint x="1710" y="500" as="targetPoint" />
            <Array as="points" />
          </mxGeometry>
        </mxCell>
        <mxCell id="DTtLAvjLUg3e7SLb6-8Q-175" value="003-Arcoverde" style="whiteSpace=wrap;html=1;rounded=1;shadow=0;comic=0;strokeWidth=1;fontFamily=Verdana;fontSize=14;fillColor=#f5f5f5;strokeColor=none;verticalAlign=top;fontStyle=1" vertex="1" parent="1">
          <mxGeometry x="1680" y="740" width="200" height="200" as="geometry" />
        </mxCell>
        <mxCell id="DTtLAvjLUg3e7SLb6-8Q-176" value="Cloud" style="ellipse;shape=cloud;whiteSpace=wrap;html=1;rounded=1;shadow=0;comic=0;strokeWidth=1;fontFamily=Verdana;fontSize=12;" vertex="1" parent="1">
          <mxGeometry x="1800" y="780" width="50" height="30" as="geometry" />
        </mxCell>
        <mxCell id="DTtLAvjLUg3e7SLb6-8Q-177" value="" style="shape=mxgraph.cisco.routers.router;html=1;dashed=0;fillColor=#036897;strokeColor=#ffffff;strokeWidth=2;verticalLabelPosition=bottom;verticalAlign=top;rounded=1;shadow=0;comic=0;fontFamily=Verdana;fontSize=12;" vertex="1" parent="1">
          <mxGeometry x="1700" y="826" width="50" height="39" as="geometry" />
        </mxCell>
        <mxCell id="DTtLAvjLUg3e7SLb6-8Q-178" value="Cloud" style="ellipse;shape=cloud;whiteSpace=wrap;html=1;rounded=1;shadow=0;comic=0;strokeWidth=1;fontFamily=Verdana;fontSize=12;" vertex="1" parent="1">
          <mxGeometry x="1800" y="865" width="50" height="30" as="geometry" />
        </mxCell>
        <mxCell id="DTtLAvjLUg3e7SLb6-8Q-179" style="edgeStyle=none;html=1;labelBackgroundColor=none;startFill=0;endArrow=none;endFill=0;strokeWidth=2;fontFamily=Verdana;fontSize=12;exitX=0.07;exitY=0.4;exitDx=0;exitDy=0;exitPerimeter=0;entryX=0.5;entryY=1;entryDx=0;entryDy=0;entryPerimeter=0;rounded=1;" edge="1" parent="1" source="DTtLAvjLUg3e7SLb6-8Q-178" target="DTtLAvjLUg3e7SLb6-8Q-177">
          <mxGeometry relative="1" as="geometry">
            <mxPoint x="1990" y="850" as="sourcePoint" />
            <mxPoint x="1750" y="845" as="targetPoint" />
            <Array as="points" />
          </mxGeometry>
        </mxCell>
        <mxCell id="DTtLAvjLUg3e7SLb6-8Q-180" style="edgeStyle=none;html=1;labelBackgroundColor=none;startFill=0;endArrow=none;endFill=0;strokeWidth=2;fontFamily=Verdana;fontSize=12;entryX=0.5;entryY=0;entryDx=0;entryDy=0;entryPerimeter=0;exitX=0.16;exitY=0.55;exitDx=0;exitDy=0;exitPerimeter=0;rounded=1;" edge="1" parent="1" source="DTtLAvjLUg3e7SLb6-8Q-176" target="DTtLAvjLUg3e7SLb6-8Q-177">
          <mxGeometry relative="1" as="geometry">
            <mxPoint x="1829" y="814" as="sourcePoint" />
            <mxPoint x="1710" y="800" as="targetPoint" />
            <Array as="points" />
          </mxGeometry>
        </mxCell>
        <mxCell id="DTtLAvjLUg3e7SLb6-8Q-181" value="004-SantaCruz" style="whiteSpace=wrap;html=1;rounded=1;shadow=0;comic=0;strokeWidth=1;fontFamily=Verdana;fontSize=14;fillColor=#f5f5f5;strokeColor=none;verticalAlign=top;fontStyle=1" vertex="1" parent="1">
          <mxGeometry x="1680" y="1030" width="200" height="200" as="geometry" />
        </mxCell>
        <mxCell id="DTtLAvjLUg3e7SLb6-8Q-182" value="Cloud" style="ellipse;shape=cloud;whiteSpace=wrap;html=1;rounded=1;shadow=0;comic=0;strokeWidth=1;fontFamily=Verdana;fontSize=12;" vertex="1" parent="1">
          <mxGeometry x="1800" y="1070" width="50" height="30" as="geometry" />
        </mxCell>
        <mxCell id="DTtLAvjLUg3e7SLb6-8Q-183" value="" style="shape=mxgraph.cisco.routers.router;html=1;dashed=0;fillColor=#036897;strokeColor=#ffffff;strokeWidth=2;verticalLabelPosition=bottom;verticalAlign=top;rounded=1;shadow=0;comic=0;fontFamily=Verdana;fontSize=12;" vertex="1" parent="1">
          <mxGeometry x="1700" y="1116" width="50" height="39" as="geometry" />
        </mxCell>
        <mxCell id="DTtLAvjLUg3e7SLb6-8Q-184" value="Cloud" style="ellipse;shape=cloud;whiteSpace=wrap;html=1;rounded=1;shadow=0;comic=0;strokeWidth=1;fontFamily=Verdana;fontSize=12;" vertex="1" parent="1">
          <mxGeometry x="1800" y="1155" width="50" height="30" as="geometry" />
        </mxCell>
        <mxCell id="DTtLAvjLUg3e7SLb6-8Q-185" style="edgeStyle=none;html=1;labelBackgroundColor=none;startFill=0;endArrow=none;endFill=0;strokeWidth=2;fontFamily=Verdana;fontSize=12;exitX=0.07;exitY=0.4;exitDx=0;exitDy=0;exitPerimeter=0;entryX=0.5;entryY=1;entryDx=0;entryDy=0;entryPerimeter=0;rounded=1;" edge="1" parent="1" source="DTtLAvjLUg3e7SLb6-8Q-184" target="DTtLAvjLUg3e7SLb6-8Q-183">
          <mxGeometry relative="1" as="geometry">
            <mxPoint x="1990" y="1140" as="sourcePoint" />
            <mxPoint x="1750" y="1135" as="targetPoint" />
            <Array as="points" />
          </mxGeometry>
        </mxCell>
        <mxCell id="DTtLAvjLUg3e7SLb6-8Q-186" style="edgeStyle=none;html=1;labelBackgroundColor=none;startFill=0;endArrow=none;endFill=0;strokeWidth=2;fontFamily=Verdana;fontSize=12;entryX=0.5;entryY=0;entryDx=0;entryDy=0;entryPerimeter=0;exitX=0.16;exitY=0.55;exitDx=0;exitDy=0;exitPerimeter=0;rounded=1;" edge="1" parent="1" source="DTtLAvjLUg3e7SLb6-8Q-182" target="DTtLAvjLUg3e7SLb6-8Q-183">
          <mxGeometry relative="1" as="geometry">
            <mxPoint x="1829" y="1104" as="sourcePoint" />
            <mxPoint x="1710" y="1090" as="targetPoint" />
            <Array as="points" />
          </mxGeometry>
        </mxCell>
        <mxCell id="DTtLAvjLUg3e7SLb6-8Q-187" value="005-Bongi" style="whiteSpace=wrap;html=1;rounded=1;shadow=0;comic=0;strokeWidth=1;fontFamily=Verdana;fontSize=14;fillColor=#f5f5f5;strokeColor=none;verticalAlign=top;fontStyle=1" vertex="1" parent="1">
          <mxGeometry x="1680" y="1310" width="200" height="200" as="geometry" />
        </mxCell>
        <mxCell id="DTtLAvjLUg3e7SLb6-8Q-188" value="Cloud" style="ellipse;shape=cloud;whiteSpace=wrap;html=1;rounded=1;shadow=0;comic=0;strokeWidth=1;fontFamily=Verdana;fontSize=12;" vertex="1" parent="1">
          <mxGeometry x="1800" y="1350" width="50" height="30" as="geometry" />
        </mxCell>
        <mxCell id="DTtLAvjLUg3e7SLb6-8Q-189" value="" style="shape=mxgraph.cisco.routers.router;html=1;dashed=0;fillColor=#036897;strokeColor=#ffffff;strokeWidth=2;verticalLabelPosition=bottom;verticalAlign=top;rounded=1;shadow=0;comic=0;fontFamily=Verdana;fontSize=12;" vertex="1" parent="1">
          <mxGeometry x="1700" y="1396" width="50" height="39" as="geometry" />
        </mxCell>
        <mxCell id="DTtLAvjLUg3e7SLb6-8Q-190" value="Cloud" style="ellipse;shape=cloud;whiteSpace=wrap;html=1;rounded=1;shadow=0;comic=0;strokeWidth=1;fontFamily=Verdana;fontSize=12;" vertex="1" parent="1">
          <mxGeometry x="1800" y="1435" width="50" height="30" as="geometry" />
        </mxCell>
        <mxCell id="DTtLAvjLUg3e7SLb6-8Q-191" style="edgeStyle=none;html=1;labelBackgroundColor=none;startFill=0;endArrow=none;endFill=0;strokeWidth=2;fontFamily=Verdana;fontSize=12;exitX=0.07;exitY=0.4;exitDx=0;exitDy=0;exitPerimeter=0;entryX=0.5;entryY=1;entryDx=0;entryDy=0;entryPerimeter=0;rounded=1;" edge="1" parent="1" source="DTtLAvjLUg3e7SLb6-8Q-190" target="DTtLAvjLUg3e7SLb6-8Q-189">
          <mxGeometry relative="1" as="geometry">
            <mxPoint x="1990" y="1420" as="sourcePoint" />
            <mxPoint x="1750" y="1415" as="targetPoint" />
            <Array as="points" />
          </mxGeometry>
        </mxCell>
        <mxCell id="DTtLAvjLUg3e7SLb6-8Q-192" style="edgeStyle=none;html=1;labelBackgroundColor=none;startFill=0;endArrow=none;endFill=0;strokeWidth=2;fontFamily=Verdana;fontSize=12;entryX=0.5;entryY=0;entryDx=0;entryDy=0;entryPerimeter=0;exitX=0.16;exitY=0.55;exitDx=0;exitDy=0;exitPerimeter=0;rounded=1;" edge="1" parent="1" source="DTtLAvjLUg3e7SLb6-8Q-188" target="DTtLAvjLUg3e7SLb6-8Q-189">
          <mxGeometry relative="1" as="geometry">
            <mxPoint x="1829" y="1384" as="sourcePoint" />
            <mxPoint x="1710" y="1370" as="targetPoint" />
            <Array as="points" />
          </mxGeometry>
        </mxCell>
        <mxCell id="DTtLAvjLUg3e7SLb6-8Q-193" value="006-Paulista" style="whiteSpace=wrap;html=1;rounded=1;shadow=0;comic=0;strokeWidth=1;fontFamily=Verdana;fontSize=14;fillColor=#f5f5f5;strokeColor=none;verticalAlign=top;fontStyle=1" vertex="1" parent="1">
          <mxGeometry x="1680" y="1590" width="200" height="200" as="geometry" />
        </mxCell>
        <mxCell id="DTtLAvjLUg3e7SLb6-8Q-194" value="Cloud" style="ellipse;shape=cloud;whiteSpace=wrap;html=1;rounded=1;shadow=0;comic=0;strokeWidth=1;fontFamily=Verdana;fontSize=12;" vertex="1" parent="1">
          <mxGeometry x="1800" y="1632" width="50" height="30" as="geometry" />
        </mxCell>
        <mxCell id="DTtLAvjLUg3e7SLb6-8Q-195" value="" style="shape=mxgraph.cisco.routers.router;html=1;dashed=0;fillColor=#036897;strokeColor=#ffffff;strokeWidth=2;verticalLabelPosition=bottom;verticalAlign=top;rounded=1;shadow=0;comic=0;fontFamily=Verdana;fontSize=12;" vertex="1" parent="1">
          <mxGeometry x="1700" y="1678" width="50" height="39" as="geometry" />
        </mxCell>
        <mxCell id="DTtLAvjLUg3e7SLb6-8Q-196" value="Cloud" style="ellipse;shape=cloud;whiteSpace=wrap;html=1;rounded=1;shadow=0;comic=0;strokeWidth=1;fontFamily=Verdana;fontSize=12;" vertex="1" parent="1">
          <mxGeometry x="1800" y="1717" width="50" height="30" as="geometry" />
        </mxCell>
        <mxCell id="DTtLAvjLUg3e7SLb6-8Q-197" style="edgeStyle=none;html=1;labelBackgroundColor=none;startFill=0;endArrow=none;endFill=0;strokeWidth=2;fontFamily=Verdana;fontSize=12;exitX=0.07;exitY=0.4;exitDx=0;exitDy=0;exitPerimeter=0;entryX=0.5;entryY=1;entryDx=0;entryDy=0;entryPerimeter=0;rounded=1;" edge="1" parent="1" source="DTtLAvjLUg3e7SLb6-8Q-196" target="DTtLAvjLUg3e7SLb6-8Q-195">
          <mxGeometry relative="1" as="geometry">
            <mxPoint x="1990" y="1702" as="sourcePoint" />
            <mxPoint x="1750" y="1697" as="targetPoint" />
            <Array as="points" />
          </mxGeometry>
        </mxCell>
        <mxCell id="DTtLAvjLUg3e7SLb6-8Q-198" style="edgeStyle=none;html=1;labelBackgroundColor=none;startFill=0;endArrow=none;endFill=0;strokeWidth=2;fontFamily=Verdana;fontSize=12;entryX=0.5;entryY=0;entryDx=0;entryDy=0;entryPerimeter=0;exitX=0.16;exitY=0.55;exitDx=0;exitDy=0;exitPerimeter=0;rounded=1;" edge="1" parent="1" source="DTtLAvjLUg3e7SLb6-8Q-194" target="DTtLAvjLUg3e7SLb6-8Q-195">
          <mxGeometry relative="1" as="geometry">
            <mxPoint x="1829" y="1666" as="sourcePoint" />
            <mxPoint x="1710" y="1652" as="targetPoint" />
            <Array as="points" />
          </mxGeometry>
        </mxCell>
        <mxCell id="DTtLAvjLUg3e7SLb6-8Q-199" value="001 - Carpina" style="whiteSpace=wrap;html=1;rounded=1;shadow=0;comic=0;strokeWidth=1;fontFamily=Verdana;fontSize=14;fillColor=#f5f5f5;strokeColor=none;verticalAlign=top;fontStyle=1" vertex="1" parent="1">
          <mxGeometry x="1910" y="160" width="200" height="200" as="geometry" />
        </mxCell>
        <mxCell id="DTtLAvjLUg3e7SLb6-8Q-200" value="Cloud" style="ellipse;shape=cloud;whiteSpace=wrap;html=1;rounded=1;shadow=0;comic=0;strokeWidth=1;fontFamily=Verdana;fontSize=12;" vertex="1" parent="1">
          <mxGeometry x="2030" y="200" width="50" height="30" as="geometry" />
        </mxCell>
        <mxCell id="DTtLAvjLUg3e7SLb6-8Q-201" value="" style="shape=mxgraph.cisco.routers.router;html=1;dashed=0;fillColor=#036897;strokeColor=#ffffff;strokeWidth=2;verticalLabelPosition=bottom;verticalAlign=top;rounded=1;shadow=0;comic=0;fontFamily=Verdana;fontSize=12;" vertex="1" parent="1">
          <mxGeometry x="1930" y="246" width="50" height="39" as="geometry" />
        </mxCell>
        <mxCell id="DTtLAvjLUg3e7SLb6-8Q-202" value="Cloud" style="ellipse;shape=cloud;whiteSpace=wrap;html=1;rounded=1;shadow=0;comic=0;strokeWidth=1;fontFamily=Verdana;fontSize=12;" vertex="1" parent="1">
          <mxGeometry x="2030" y="285" width="50" height="30" as="geometry" />
        </mxCell>
        <mxCell id="DTtLAvjLUg3e7SLb6-8Q-203" style="edgeStyle=none;html=1;labelBackgroundColor=none;startFill=0;endArrow=none;endFill=0;strokeWidth=2;fontFamily=Verdana;fontSize=12;exitX=0.07;exitY=0.4;exitDx=0;exitDy=0;exitPerimeter=0;entryX=0.5;entryY=1;entryDx=0;entryDy=0;entryPerimeter=0;rounded=1;" edge="1" parent="1" source="DTtLAvjLUg3e7SLb6-8Q-202" target="DTtLAvjLUg3e7SLb6-8Q-201">
          <mxGeometry relative="1" as="geometry">
            <mxPoint x="2220" y="270" as="sourcePoint" />
            <mxPoint x="1980" y="265" as="targetPoint" />
            <Array as="points" />
          </mxGeometry>
        </mxCell>
        <mxCell id="DTtLAvjLUg3e7SLb6-8Q-204" style="edgeStyle=none;html=1;labelBackgroundColor=none;startFill=0;endArrow=none;endFill=0;strokeWidth=2;fontFamily=Verdana;fontSize=12;entryX=0.5;entryY=0;entryDx=0;entryDy=0;entryPerimeter=0;exitX=0.16;exitY=0.55;exitDx=0;exitDy=0;exitPerimeter=0;rounded=1;" edge="1" parent="1" source="DTtLAvjLUg3e7SLb6-8Q-200" target="DTtLAvjLUg3e7SLb6-8Q-201">
          <mxGeometry relative="1" as="geometry">
            <mxPoint x="2059" y="234" as="sourcePoint" />
            <mxPoint x="1940" y="220" as="targetPoint" />
            <Array as="points" />
          </mxGeometry>
        </mxCell>
        <mxCell id="DTtLAvjLUg3e7SLb6-8Q-205" value="002-Vitoria" style="whiteSpace=wrap;html=1;rounded=1;shadow=0;comic=0;strokeWidth=1;fontFamily=Verdana;fontSize=14;fillColor=#f5f5f5;strokeColor=none;verticalAlign=top;fontStyle=1" vertex="1" parent="1">
          <mxGeometry x="1910" y="440" width="200" height="200" as="geometry" />
        </mxCell>
        <mxCell id="DTtLAvjLUg3e7SLb6-8Q-206" value="Cloud" style="ellipse;shape=cloud;whiteSpace=wrap;html=1;rounded=1;shadow=0;comic=0;strokeWidth=1;fontFamily=Verdana;fontSize=12;" vertex="1" parent="1">
          <mxGeometry x="2030" y="480" width="50" height="30" as="geometry" />
        </mxCell>
        <mxCell id="DTtLAvjLUg3e7SLb6-8Q-207" value="" style="shape=mxgraph.cisco.routers.router;html=1;dashed=0;fillColor=#036897;strokeColor=#ffffff;strokeWidth=2;verticalLabelPosition=bottom;verticalAlign=top;rounded=1;shadow=0;comic=0;fontFamily=Verdana;fontSize=12;" vertex="1" parent="1">
          <mxGeometry x="1930" y="526" width="50" height="39" as="geometry" />
        </mxCell>
        <mxCell id="DTtLAvjLUg3e7SLb6-8Q-208" value="Cloud" style="ellipse;shape=cloud;whiteSpace=wrap;html=1;rounded=1;shadow=0;comic=0;strokeWidth=1;fontFamily=Verdana;fontSize=12;" vertex="1" parent="1">
          <mxGeometry x="2030" y="565" width="50" height="30" as="geometry" />
        </mxCell>
        <mxCell id="DTtLAvjLUg3e7SLb6-8Q-209" style="edgeStyle=none;html=1;labelBackgroundColor=none;startFill=0;endArrow=none;endFill=0;strokeWidth=2;fontFamily=Verdana;fontSize=12;exitX=0.07;exitY=0.4;exitDx=0;exitDy=0;exitPerimeter=0;entryX=0.5;entryY=1;entryDx=0;entryDy=0;entryPerimeter=0;rounded=1;" edge="1" parent="1" source="DTtLAvjLUg3e7SLb6-8Q-208" target="DTtLAvjLUg3e7SLb6-8Q-207">
          <mxGeometry relative="1" as="geometry">
            <mxPoint x="2220" y="550" as="sourcePoint" />
            <mxPoint x="1980" y="545" as="targetPoint" />
            <Array as="points" />
          </mxGeometry>
        </mxCell>
        <mxCell id="DTtLAvjLUg3e7SLb6-8Q-210" style="edgeStyle=none;html=1;labelBackgroundColor=none;startFill=0;endArrow=none;endFill=0;strokeWidth=2;fontFamily=Verdana;fontSize=12;entryX=0.5;entryY=0;entryDx=0;entryDy=0;entryPerimeter=0;exitX=0.16;exitY=0.55;exitDx=0;exitDy=0;exitPerimeter=0;rounded=1;" edge="1" parent="1" source="DTtLAvjLUg3e7SLb6-8Q-206" target="DTtLAvjLUg3e7SLb6-8Q-207">
          <mxGeometry relative="1" as="geometry">
            <mxPoint x="2059" y="514" as="sourcePoint" />
            <mxPoint x="1940" y="500" as="targetPoint" />
            <Array as="points" />
          </mxGeometry>
        </mxCell>
        <mxCell id="DTtLAvjLUg3e7SLb6-8Q-211" value="003-Arcoverde" style="whiteSpace=wrap;html=1;rounded=1;shadow=0;comic=0;strokeWidth=1;fontFamily=Verdana;fontSize=14;fillColor=#f5f5f5;strokeColor=none;verticalAlign=top;fontStyle=1" vertex="1" parent="1">
          <mxGeometry x="1910" y="740" width="200" height="200" as="geometry" />
        </mxCell>
        <mxCell id="DTtLAvjLUg3e7SLb6-8Q-212" value="Cloud" style="ellipse;shape=cloud;whiteSpace=wrap;html=1;rounded=1;shadow=0;comic=0;strokeWidth=1;fontFamily=Verdana;fontSize=12;" vertex="1" parent="1">
          <mxGeometry x="2030" y="780" width="50" height="30" as="geometry" />
        </mxCell>
        <mxCell id="DTtLAvjLUg3e7SLb6-8Q-213" value="" style="shape=mxgraph.cisco.routers.router;html=1;dashed=0;fillColor=#036897;strokeColor=#ffffff;strokeWidth=2;verticalLabelPosition=bottom;verticalAlign=top;rounded=1;shadow=0;comic=0;fontFamily=Verdana;fontSize=12;" vertex="1" parent="1">
          <mxGeometry x="1930" y="826" width="50" height="39" as="geometry" />
        </mxCell>
        <mxCell id="DTtLAvjLUg3e7SLb6-8Q-214" value="Cloud" style="ellipse;shape=cloud;whiteSpace=wrap;html=1;rounded=1;shadow=0;comic=0;strokeWidth=1;fontFamily=Verdana;fontSize=12;" vertex="1" parent="1">
          <mxGeometry x="2030" y="865" width="50" height="30" as="geometry" />
        </mxCell>
        <mxCell id="DTtLAvjLUg3e7SLb6-8Q-215" style="edgeStyle=none;html=1;labelBackgroundColor=none;startFill=0;endArrow=none;endFill=0;strokeWidth=2;fontFamily=Verdana;fontSize=12;exitX=0.07;exitY=0.4;exitDx=0;exitDy=0;exitPerimeter=0;entryX=0.5;entryY=1;entryDx=0;entryDy=0;entryPerimeter=0;rounded=1;" edge="1" parent="1" source="DTtLAvjLUg3e7SLb6-8Q-214" target="DTtLAvjLUg3e7SLb6-8Q-213">
          <mxGeometry relative="1" as="geometry">
            <mxPoint x="2220" y="850" as="sourcePoint" />
            <mxPoint x="1980" y="845" as="targetPoint" />
            <Array as="points" />
          </mxGeometry>
        </mxCell>
        <mxCell id="DTtLAvjLUg3e7SLb6-8Q-216" style="edgeStyle=none;html=1;labelBackgroundColor=none;startFill=0;endArrow=none;endFill=0;strokeWidth=2;fontFamily=Verdana;fontSize=12;entryX=0.5;entryY=0;entryDx=0;entryDy=0;entryPerimeter=0;exitX=0.16;exitY=0.55;exitDx=0;exitDy=0;exitPerimeter=0;rounded=1;" edge="1" parent="1" source="DTtLAvjLUg3e7SLb6-8Q-212" target="DTtLAvjLUg3e7SLb6-8Q-213">
          <mxGeometry relative="1" as="geometry">
            <mxPoint x="2059" y="814" as="sourcePoint" />
            <mxPoint x="1940" y="800" as="targetPoint" />
            <Array as="points" />
          </mxGeometry>
        </mxCell>
        <mxCell id="DTtLAvjLUg3e7SLb6-8Q-217" value="004-SantaCruz" style="whiteSpace=wrap;html=1;rounded=1;shadow=0;comic=0;strokeWidth=1;fontFamily=Verdana;fontSize=14;fillColor=#f5f5f5;strokeColor=none;verticalAlign=top;fontStyle=1" vertex="1" parent="1">
          <mxGeometry x="1910" y="1030" width="200" height="200" as="geometry" />
        </mxCell>
        <mxCell id="DTtLAvjLUg3e7SLb6-8Q-218" value="Cloud" style="ellipse;shape=cloud;whiteSpace=wrap;html=1;rounded=1;shadow=0;comic=0;strokeWidth=1;fontFamily=Verdana;fontSize=12;" vertex="1" parent="1">
          <mxGeometry x="2030" y="1070" width="50" height="30" as="geometry" />
        </mxCell>
        <mxCell id="DTtLAvjLUg3e7SLb6-8Q-219" value="" style="shape=mxgraph.cisco.routers.router;html=1;dashed=0;fillColor=#036897;strokeColor=#ffffff;strokeWidth=2;verticalLabelPosition=bottom;verticalAlign=top;rounded=1;shadow=0;comic=0;fontFamily=Verdana;fontSize=12;" vertex="1" parent="1">
          <mxGeometry x="1930" y="1116" width="50" height="39" as="geometry" />
        </mxCell>
        <mxCell id="DTtLAvjLUg3e7SLb6-8Q-220" value="Cloud" style="ellipse;shape=cloud;whiteSpace=wrap;html=1;rounded=1;shadow=0;comic=0;strokeWidth=1;fontFamily=Verdana;fontSize=12;" vertex="1" parent="1">
          <mxGeometry x="2030" y="1155" width="50" height="30" as="geometry" />
        </mxCell>
        <mxCell id="DTtLAvjLUg3e7SLb6-8Q-221" style="edgeStyle=none;html=1;labelBackgroundColor=none;startFill=0;endArrow=none;endFill=0;strokeWidth=2;fontFamily=Verdana;fontSize=12;exitX=0.07;exitY=0.4;exitDx=0;exitDy=0;exitPerimeter=0;entryX=0.5;entryY=1;entryDx=0;entryDy=0;entryPerimeter=0;rounded=1;" edge="1" parent="1" source="DTtLAvjLUg3e7SLb6-8Q-220" target="DTtLAvjLUg3e7SLb6-8Q-219">
          <mxGeometry relative="1" as="geometry">
            <mxPoint x="2220" y="1140" as="sourcePoint" />
            <mxPoint x="1980" y="1135" as="targetPoint" />
            <Array as="points" />
          </mxGeometry>
        </mxCell>
        <mxCell id="DTtLAvjLUg3e7SLb6-8Q-222" style="edgeStyle=none;html=1;labelBackgroundColor=none;startFill=0;endArrow=none;endFill=0;strokeWidth=2;fontFamily=Verdana;fontSize=12;entryX=0.5;entryY=0;entryDx=0;entryDy=0;entryPerimeter=0;exitX=0.16;exitY=0.55;exitDx=0;exitDy=0;exitPerimeter=0;rounded=1;" edge="1" parent="1" source="DTtLAvjLUg3e7SLb6-8Q-218" target="DTtLAvjLUg3e7SLb6-8Q-219">
          <mxGeometry relative="1" as="geometry">
            <mxPoint x="2059" y="1104" as="sourcePoint" />
            <mxPoint x="1940" y="1090" as="targetPoint" />
            <Array as="points" />
          </mxGeometry>
        </mxCell>
        <mxCell id="DTtLAvjLUg3e7SLb6-8Q-223" value="005-Bongi" style="whiteSpace=wrap;html=1;rounded=1;shadow=0;comic=0;strokeWidth=1;fontFamily=Verdana;fontSize=14;fillColor=#f5f5f5;strokeColor=none;verticalAlign=top;fontStyle=1" vertex="1" parent="1">
          <mxGeometry x="1910" y="1310" width="200" height="200" as="geometry" />
        </mxCell>
        <mxCell id="DTtLAvjLUg3e7SLb6-8Q-224" value="Cloud" style="ellipse;shape=cloud;whiteSpace=wrap;html=1;rounded=1;shadow=0;comic=0;strokeWidth=1;fontFamily=Verdana;fontSize=12;" vertex="1" parent="1">
          <mxGeometry x="2030" y="1350" width="50" height="30" as="geometry" />
        </mxCell>
        <mxCell id="DTtLAvjLUg3e7SLb6-8Q-225" value="" style="shape=mxgraph.cisco.routers.router;html=1;dashed=0;fillColor=#036897;strokeColor=#ffffff;strokeWidth=2;verticalLabelPosition=bottom;verticalAlign=top;rounded=1;shadow=0;comic=0;fontFamily=Verdana;fontSize=12;" vertex="1" parent="1">
          <mxGeometry x="1930" y="1396" width="50" height="39" as="geometry" />
        </mxCell>
        <mxCell id="DTtLAvjLUg3e7SLb6-8Q-226" value="Cloud" style="ellipse;shape=cloud;whiteSpace=wrap;html=1;rounded=1;shadow=0;comic=0;strokeWidth=1;fontFamily=Verdana;fontSize=12;" vertex="1" parent="1">
          <mxGeometry x="2030" y="1435" width="50" height="30" as="geometry" />
        </mxCell>
        <mxCell id="DTtLAvjLUg3e7SLb6-8Q-227" style="edgeStyle=none;html=1;labelBackgroundColor=none;startFill=0;endArrow=none;endFill=0;strokeWidth=2;fontFamily=Verdana;fontSize=12;exitX=0.07;exitY=0.4;exitDx=0;exitDy=0;exitPerimeter=0;entryX=0.5;entryY=1;entryDx=0;entryDy=0;entryPerimeter=0;rounded=1;" edge="1" parent="1" source="DTtLAvjLUg3e7SLb6-8Q-226" target="DTtLAvjLUg3e7SLb6-8Q-225">
          <mxGeometry relative="1" as="geometry">
            <mxPoint x="2220" y="1420" as="sourcePoint" />
            <mxPoint x="1980" y="1415" as="targetPoint" />
            <Array as="points" />
          </mxGeometry>
        </mxCell>
        <mxCell id="DTtLAvjLUg3e7SLb6-8Q-228" style="edgeStyle=none;html=1;labelBackgroundColor=none;startFill=0;endArrow=none;endFill=0;strokeWidth=2;fontFamily=Verdana;fontSize=12;entryX=0.5;entryY=0;entryDx=0;entryDy=0;entryPerimeter=0;exitX=0.16;exitY=0.55;exitDx=0;exitDy=0;exitPerimeter=0;rounded=1;" edge="1" parent="1" source="DTtLAvjLUg3e7SLb6-8Q-224" target="DTtLAvjLUg3e7SLb6-8Q-225">
          <mxGeometry relative="1" as="geometry">
            <mxPoint x="2059" y="1384" as="sourcePoint" />
            <mxPoint x="1940" y="1370" as="targetPoint" />
            <Array as="points" />
          </mxGeometry>
        </mxCell>
        <mxCell id="DTtLAvjLUg3e7SLb6-8Q-229" value="006-Paulista" style="whiteSpace=wrap;html=1;rounded=1;shadow=0;comic=0;strokeWidth=1;fontFamily=Verdana;fontSize=14;fillColor=#f5f5f5;strokeColor=none;verticalAlign=top;fontStyle=1" vertex="1" parent="1">
          <mxGeometry x="1910" y="1590" width="200" height="200" as="geometry" />
        </mxCell>
        <mxCell id="DTtLAvjLUg3e7SLb6-8Q-230" value="Cloud" style="ellipse;shape=cloud;whiteSpace=wrap;html=1;rounded=1;shadow=0;comic=0;strokeWidth=1;fontFamily=Verdana;fontSize=12;" vertex="1" parent="1">
          <mxGeometry x="2030" y="1632" width="50" height="30" as="geometry" />
        </mxCell>
        <mxCell id="DTtLAvjLUg3e7SLb6-8Q-231" value="" style="shape=mxgraph.cisco.routers.router;html=1;dashed=0;fillColor=#036897;strokeColor=#ffffff;strokeWidth=2;verticalLabelPosition=bottom;verticalAlign=top;rounded=1;shadow=0;comic=0;fontFamily=Verdana;fontSize=12;" vertex="1" parent="1">
          <mxGeometry x="1930" y="1678" width="50" height="39" as="geometry" />
        </mxCell>
        <mxCell id="DTtLAvjLUg3e7SLb6-8Q-232" value="Cloud" style="ellipse;shape=cloud;whiteSpace=wrap;html=1;rounded=1;shadow=0;comic=0;strokeWidth=1;fontFamily=Verdana;fontSize=12;" vertex="1" parent="1">
          <mxGeometry x="2030" y="1717" width="50" height="30" as="geometry" />
        </mxCell>
        <mxCell id="DTtLAvjLUg3e7SLb6-8Q-233" style="edgeStyle=none;html=1;labelBackgroundColor=none;startFill=0;endArrow=none;endFill=0;strokeWidth=2;fontFamily=Verdana;fontSize=12;exitX=0.07;exitY=0.4;exitDx=0;exitDy=0;exitPerimeter=0;entryX=0.5;entryY=1;entryDx=0;entryDy=0;entryPerimeter=0;rounded=1;" edge="1" parent="1" source="DTtLAvjLUg3e7SLb6-8Q-232" target="DTtLAvjLUg3e7SLb6-8Q-231">
          <mxGeometry relative="1" as="geometry">
            <mxPoint x="2220" y="1702" as="sourcePoint" />
            <mxPoint x="1980" y="1697" as="targetPoint" />
            <Array as="points" />
          </mxGeometry>
        </mxCell>
        <mxCell id="DTtLAvjLUg3e7SLb6-8Q-234" style="edgeStyle=none;html=1;labelBackgroundColor=none;startFill=0;endArrow=none;endFill=0;strokeWidth=2;fontFamily=Verdana;fontSize=12;entryX=0.5;entryY=0;entryDx=0;entryDy=0;entryPerimeter=0;exitX=0.16;exitY=0.55;exitDx=0;exitDy=0;exitPerimeter=0;rounded=1;" edge="1" parent="1" source="DTtLAvjLUg3e7SLb6-8Q-230" target="DTtLAvjLUg3e7SLb6-8Q-231">
          <mxGeometry relative="1" as="geometry">
            <mxPoint x="2059" y="1666" as="sourcePoint" />
            <mxPoint x="1940" y="1652" as="targetPoint" />
            <Array as="points" />
          </mxGeometry>
        </mxCell>
        <mxCell id="DTtLAvjLUg3e7SLb6-8Q-235" value="001 - Carpina" style="whiteSpace=wrap;html=1;rounded=1;shadow=0;comic=0;strokeWidth=1;fontFamily=Verdana;fontSize=14;fillColor=#f5f5f5;strokeColor=none;verticalAlign=top;fontStyle=1" vertex="1" parent="1">
          <mxGeometry x="2170" y="160" width="200" height="200" as="geometry" />
        </mxCell>
        <mxCell id="DTtLAvjLUg3e7SLb6-8Q-236" value="Cloud" style="ellipse;shape=cloud;whiteSpace=wrap;html=1;rounded=1;shadow=0;comic=0;strokeWidth=1;fontFamily=Verdana;fontSize=12;" vertex="1" parent="1">
          <mxGeometry x="2290" y="200" width="50" height="30" as="geometry" />
        </mxCell>
        <mxCell id="DTtLAvjLUg3e7SLb6-8Q-237" value="" style="shape=mxgraph.cisco.routers.router;html=1;dashed=0;fillColor=#036897;strokeColor=#ffffff;strokeWidth=2;verticalLabelPosition=bottom;verticalAlign=top;rounded=1;shadow=0;comic=0;fontFamily=Verdana;fontSize=12;" vertex="1" parent="1">
          <mxGeometry x="2190" y="246" width="50" height="39" as="geometry" />
        </mxCell>
        <mxCell id="DTtLAvjLUg3e7SLb6-8Q-238" value="Cloud" style="ellipse;shape=cloud;whiteSpace=wrap;html=1;rounded=1;shadow=0;comic=0;strokeWidth=1;fontFamily=Verdana;fontSize=12;" vertex="1" parent="1">
          <mxGeometry x="2290" y="285" width="50" height="30" as="geometry" />
        </mxCell>
        <mxCell id="DTtLAvjLUg3e7SLb6-8Q-239" style="edgeStyle=none;html=1;labelBackgroundColor=none;startFill=0;endArrow=none;endFill=0;strokeWidth=2;fontFamily=Verdana;fontSize=12;exitX=0.07;exitY=0.4;exitDx=0;exitDy=0;exitPerimeter=0;entryX=0.5;entryY=1;entryDx=0;entryDy=0;entryPerimeter=0;rounded=1;" edge="1" parent="1" source="DTtLAvjLUg3e7SLb6-8Q-238" target="DTtLAvjLUg3e7SLb6-8Q-237">
          <mxGeometry relative="1" as="geometry">
            <mxPoint x="2480" y="270" as="sourcePoint" />
            <mxPoint x="2240" y="265" as="targetPoint" />
            <Array as="points" />
          </mxGeometry>
        </mxCell>
        <mxCell id="DTtLAvjLUg3e7SLb6-8Q-240" style="edgeStyle=none;html=1;labelBackgroundColor=none;startFill=0;endArrow=none;endFill=0;strokeWidth=2;fontFamily=Verdana;fontSize=12;entryX=0.5;entryY=0;entryDx=0;entryDy=0;entryPerimeter=0;exitX=0.16;exitY=0.55;exitDx=0;exitDy=0;exitPerimeter=0;rounded=1;" edge="1" parent="1" source="DTtLAvjLUg3e7SLb6-8Q-236" target="DTtLAvjLUg3e7SLb6-8Q-237">
          <mxGeometry relative="1" as="geometry">
            <mxPoint x="2319" y="234" as="sourcePoint" />
            <mxPoint x="2200" y="220" as="targetPoint" />
            <Array as="points" />
          </mxGeometry>
        </mxCell>
        <mxCell id="DTtLAvjLUg3e7SLb6-8Q-241" value="002-Vitoria" style="whiteSpace=wrap;html=1;rounded=1;shadow=0;comic=0;strokeWidth=1;fontFamily=Verdana;fontSize=14;fillColor=#f5f5f5;strokeColor=none;verticalAlign=top;fontStyle=1" vertex="1" parent="1">
          <mxGeometry x="2170" y="440" width="200" height="200" as="geometry" />
        </mxCell>
        <mxCell id="DTtLAvjLUg3e7SLb6-8Q-242" value="Cloud" style="ellipse;shape=cloud;whiteSpace=wrap;html=1;rounded=1;shadow=0;comic=0;strokeWidth=1;fontFamily=Verdana;fontSize=12;" vertex="1" parent="1">
          <mxGeometry x="2290" y="480" width="50" height="30" as="geometry" />
        </mxCell>
        <mxCell id="DTtLAvjLUg3e7SLb6-8Q-243" value="" style="shape=mxgraph.cisco.routers.router;html=1;dashed=0;fillColor=#036897;strokeColor=#ffffff;strokeWidth=2;verticalLabelPosition=bottom;verticalAlign=top;rounded=1;shadow=0;comic=0;fontFamily=Verdana;fontSize=12;" vertex="1" parent="1">
          <mxGeometry x="2190" y="526" width="50" height="39" as="geometry" />
        </mxCell>
        <mxCell id="DTtLAvjLUg3e7SLb6-8Q-244" value="Cloud" style="ellipse;shape=cloud;whiteSpace=wrap;html=1;rounded=1;shadow=0;comic=0;strokeWidth=1;fontFamily=Verdana;fontSize=12;" vertex="1" parent="1">
          <mxGeometry x="2290" y="565" width="50" height="30" as="geometry" />
        </mxCell>
        <mxCell id="DTtLAvjLUg3e7SLb6-8Q-245" style="edgeStyle=none;html=1;labelBackgroundColor=none;startFill=0;endArrow=none;endFill=0;strokeWidth=2;fontFamily=Verdana;fontSize=12;exitX=0.07;exitY=0.4;exitDx=0;exitDy=0;exitPerimeter=0;entryX=0.5;entryY=1;entryDx=0;entryDy=0;entryPerimeter=0;rounded=1;" edge="1" parent="1" source="DTtLAvjLUg3e7SLb6-8Q-244" target="DTtLAvjLUg3e7SLb6-8Q-243">
          <mxGeometry relative="1" as="geometry">
            <mxPoint x="2480" y="550" as="sourcePoint" />
            <mxPoint x="2240" y="545" as="targetPoint" />
            <Array as="points" />
          </mxGeometry>
        </mxCell>
        <mxCell id="DTtLAvjLUg3e7SLb6-8Q-246" style="edgeStyle=none;html=1;labelBackgroundColor=none;startFill=0;endArrow=none;endFill=0;strokeWidth=2;fontFamily=Verdana;fontSize=12;entryX=0.5;entryY=0;entryDx=0;entryDy=0;entryPerimeter=0;exitX=0.16;exitY=0.55;exitDx=0;exitDy=0;exitPerimeter=0;rounded=1;" edge="1" parent="1" source="DTtLAvjLUg3e7SLb6-8Q-242" target="DTtLAvjLUg3e7SLb6-8Q-243">
          <mxGeometry relative="1" as="geometry">
            <mxPoint x="2319" y="514" as="sourcePoint" />
            <mxPoint x="2200" y="500" as="targetPoint" />
            <Array as="points" />
          </mxGeometry>
        </mxCell>
        <mxCell id="DTtLAvjLUg3e7SLb6-8Q-247" value="003-Arcoverde" style="whiteSpace=wrap;html=1;rounded=1;shadow=0;comic=0;strokeWidth=1;fontFamily=Verdana;fontSize=14;fillColor=#f5f5f5;strokeColor=none;verticalAlign=top;fontStyle=1" vertex="1" parent="1">
          <mxGeometry x="2170" y="740" width="200" height="200" as="geometry" />
        </mxCell>
        <mxCell id="DTtLAvjLUg3e7SLb6-8Q-248" value="Cloud" style="ellipse;shape=cloud;whiteSpace=wrap;html=1;rounded=1;shadow=0;comic=0;strokeWidth=1;fontFamily=Verdana;fontSize=12;" vertex="1" parent="1">
          <mxGeometry x="2290" y="780" width="50" height="30" as="geometry" />
        </mxCell>
        <mxCell id="DTtLAvjLUg3e7SLb6-8Q-249" value="" style="shape=mxgraph.cisco.routers.router;html=1;dashed=0;fillColor=#036897;strokeColor=#ffffff;strokeWidth=2;verticalLabelPosition=bottom;verticalAlign=top;rounded=1;shadow=0;comic=0;fontFamily=Verdana;fontSize=12;" vertex="1" parent="1">
          <mxGeometry x="2190" y="826" width="50" height="39" as="geometry" />
        </mxCell>
        <mxCell id="DTtLAvjLUg3e7SLb6-8Q-250" value="Cloud" style="ellipse;shape=cloud;whiteSpace=wrap;html=1;rounded=1;shadow=0;comic=0;strokeWidth=1;fontFamily=Verdana;fontSize=12;" vertex="1" parent="1">
          <mxGeometry x="2290" y="865" width="50" height="30" as="geometry" />
        </mxCell>
        <mxCell id="DTtLAvjLUg3e7SLb6-8Q-251" style="edgeStyle=none;html=1;labelBackgroundColor=none;startFill=0;endArrow=none;endFill=0;strokeWidth=2;fontFamily=Verdana;fontSize=12;exitX=0.07;exitY=0.4;exitDx=0;exitDy=0;exitPerimeter=0;entryX=0.5;entryY=1;entryDx=0;entryDy=0;entryPerimeter=0;rounded=1;" edge="1" parent="1" source="DTtLAvjLUg3e7SLb6-8Q-250" target="DTtLAvjLUg3e7SLb6-8Q-249">
          <mxGeometry relative="1" as="geometry">
            <mxPoint x="2480" y="850" as="sourcePoint" />
            <mxPoint x="2240" y="845" as="targetPoint" />
            <Array as="points" />
          </mxGeometry>
        </mxCell>
        <mxCell id="DTtLAvjLUg3e7SLb6-8Q-252" style="edgeStyle=none;html=1;labelBackgroundColor=none;startFill=0;endArrow=none;endFill=0;strokeWidth=2;fontFamily=Verdana;fontSize=12;entryX=0.5;entryY=0;entryDx=0;entryDy=0;entryPerimeter=0;exitX=0.16;exitY=0.55;exitDx=0;exitDy=0;exitPerimeter=0;rounded=1;" edge="1" parent="1" source="DTtLAvjLUg3e7SLb6-8Q-248" target="DTtLAvjLUg3e7SLb6-8Q-249">
          <mxGeometry relative="1" as="geometry">
            <mxPoint x="2319" y="814" as="sourcePoint" />
            <mxPoint x="2200" y="800" as="targetPoint" />
            <Array as="points" />
          </mxGeometry>
        </mxCell>
        <mxCell id="DTtLAvjLUg3e7SLb6-8Q-253" value="004-SantaCruz" style="whiteSpace=wrap;html=1;rounded=1;shadow=0;comic=0;strokeWidth=1;fontFamily=Verdana;fontSize=14;fillColor=#f5f5f5;strokeColor=none;verticalAlign=top;fontStyle=1" vertex="1" parent="1">
          <mxGeometry x="2170" y="1030" width="200" height="200" as="geometry" />
        </mxCell>
        <mxCell id="DTtLAvjLUg3e7SLb6-8Q-254" value="Cloud" style="ellipse;shape=cloud;whiteSpace=wrap;html=1;rounded=1;shadow=0;comic=0;strokeWidth=1;fontFamily=Verdana;fontSize=12;" vertex="1" parent="1">
          <mxGeometry x="2290" y="1070" width="50" height="30" as="geometry" />
        </mxCell>
        <mxCell id="DTtLAvjLUg3e7SLb6-8Q-255" value="" style="shape=mxgraph.cisco.routers.router;html=1;dashed=0;fillColor=#036897;strokeColor=#ffffff;strokeWidth=2;verticalLabelPosition=bottom;verticalAlign=top;rounded=1;shadow=0;comic=0;fontFamily=Verdana;fontSize=12;" vertex="1" parent="1">
          <mxGeometry x="2190" y="1116" width="50" height="39" as="geometry" />
        </mxCell>
        <mxCell id="DTtLAvjLUg3e7SLb6-8Q-256" value="Cloud" style="ellipse;shape=cloud;whiteSpace=wrap;html=1;rounded=1;shadow=0;comic=0;strokeWidth=1;fontFamily=Verdana;fontSize=12;" vertex="1" parent="1">
          <mxGeometry x="2290" y="1155" width="50" height="30" as="geometry" />
        </mxCell>
        <mxCell id="DTtLAvjLUg3e7SLb6-8Q-257" style="edgeStyle=none;html=1;labelBackgroundColor=none;startFill=0;endArrow=none;endFill=0;strokeWidth=2;fontFamily=Verdana;fontSize=12;exitX=0.07;exitY=0.4;exitDx=0;exitDy=0;exitPerimeter=0;entryX=0.5;entryY=1;entryDx=0;entryDy=0;entryPerimeter=0;rounded=1;" edge="1" parent="1" source="DTtLAvjLUg3e7SLb6-8Q-256" target="DTtLAvjLUg3e7SLb6-8Q-255">
          <mxGeometry relative="1" as="geometry">
            <mxPoint x="2480" y="1140" as="sourcePoint" />
            <mxPoint x="2240" y="1135" as="targetPoint" />
            <Array as="points" />
          </mxGeometry>
        </mxCell>
        <mxCell id="DTtLAvjLUg3e7SLb6-8Q-258" style="edgeStyle=none;html=1;labelBackgroundColor=none;startFill=0;endArrow=none;endFill=0;strokeWidth=2;fontFamily=Verdana;fontSize=12;entryX=0.5;entryY=0;entryDx=0;entryDy=0;entryPerimeter=0;exitX=0.16;exitY=0.55;exitDx=0;exitDy=0;exitPerimeter=0;rounded=1;" edge="1" parent="1" source="DTtLAvjLUg3e7SLb6-8Q-254" target="DTtLAvjLUg3e7SLb6-8Q-255">
          <mxGeometry relative="1" as="geometry">
            <mxPoint x="2319" y="1104" as="sourcePoint" />
            <mxPoint x="2200" y="1090" as="targetPoint" />
            <Array as="points" />
          </mxGeometry>
        </mxCell>
        <mxCell id="DTtLAvjLUg3e7SLb6-8Q-259" value="005-Bongi" style="whiteSpace=wrap;html=1;rounded=1;shadow=0;comic=0;strokeWidth=1;fontFamily=Verdana;fontSize=14;fillColor=#f5f5f5;strokeColor=none;verticalAlign=top;fontStyle=1" vertex="1" parent="1">
          <mxGeometry x="2170" y="1310" width="200" height="200" as="geometry" />
        </mxCell>
        <mxCell id="DTtLAvjLUg3e7SLb6-8Q-260" value="Cloud" style="ellipse;shape=cloud;whiteSpace=wrap;html=1;rounded=1;shadow=0;comic=0;strokeWidth=1;fontFamily=Verdana;fontSize=12;" vertex="1" parent="1">
          <mxGeometry x="2290" y="1350" width="50" height="30" as="geometry" />
        </mxCell>
        <mxCell id="DTtLAvjLUg3e7SLb6-8Q-261" value="" style="shape=mxgraph.cisco.routers.router;html=1;dashed=0;fillColor=#036897;strokeColor=#ffffff;strokeWidth=2;verticalLabelPosition=bottom;verticalAlign=top;rounded=1;shadow=0;comic=0;fontFamily=Verdana;fontSize=12;" vertex="1" parent="1">
          <mxGeometry x="2190" y="1396" width="50" height="39" as="geometry" />
        </mxCell>
        <mxCell id="DTtLAvjLUg3e7SLb6-8Q-262" value="Cloud" style="ellipse;shape=cloud;whiteSpace=wrap;html=1;rounded=1;shadow=0;comic=0;strokeWidth=1;fontFamily=Verdana;fontSize=12;" vertex="1" parent="1">
          <mxGeometry x="2290" y="1435" width="50" height="30" as="geometry" />
        </mxCell>
        <mxCell id="DTtLAvjLUg3e7SLb6-8Q-263" style="edgeStyle=none;html=1;labelBackgroundColor=none;startFill=0;endArrow=none;endFill=0;strokeWidth=2;fontFamily=Verdana;fontSize=12;exitX=0.07;exitY=0.4;exitDx=0;exitDy=0;exitPerimeter=0;entryX=0.5;entryY=1;entryDx=0;entryDy=0;entryPerimeter=0;rounded=1;" edge="1" parent="1" source="DTtLAvjLUg3e7SLb6-8Q-262" target="DTtLAvjLUg3e7SLb6-8Q-261">
          <mxGeometry relative="1" as="geometry">
            <mxPoint x="2480" y="1420" as="sourcePoint" />
            <mxPoint x="2240" y="1415" as="targetPoint" />
            <Array as="points" />
          </mxGeometry>
        </mxCell>
        <mxCell id="DTtLAvjLUg3e7SLb6-8Q-264" style="edgeStyle=none;html=1;labelBackgroundColor=none;startFill=0;endArrow=none;endFill=0;strokeWidth=2;fontFamily=Verdana;fontSize=12;entryX=0.5;entryY=0;entryDx=0;entryDy=0;entryPerimeter=0;exitX=0.16;exitY=0.55;exitDx=0;exitDy=0;exitPerimeter=0;rounded=1;" edge="1" parent="1" source="DTtLAvjLUg3e7SLb6-8Q-260" target="DTtLAvjLUg3e7SLb6-8Q-261">
          <mxGeometry relative="1" as="geometry">
            <mxPoint x="2319" y="1384" as="sourcePoint" />
            <mxPoint x="2200" y="1370" as="targetPoint" />
            <Array as="points" />
          </mxGeometry>
        </mxCell>
        <mxCell id="DTtLAvjLUg3e7SLb6-8Q-265" value="006-Paulista" style="whiteSpace=wrap;html=1;rounded=1;shadow=0;comic=0;strokeWidth=1;fontFamily=Verdana;fontSize=14;fillColor=#f5f5f5;strokeColor=none;verticalAlign=top;fontStyle=1" vertex="1" parent="1">
          <mxGeometry x="2170" y="1590" width="200" height="200" as="geometry" />
        </mxCell>
        <mxCell id="DTtLAvjLUg3e7SLb6-8Q-266" value="Cloud" style="ellipse;shape=cloud;whiteSpace=wrap;html=1;rounded=1;shadow=0;comic=0;strokeWidth=1;fontFamily=Verdana;fontSize=12;" vertex="1" parent="1">
          <mxGeometry x="2290" y="1632" width="50" height="30" as="geometry" />
        </mxCell>
        <mxCell id="DTtLAvjLUg3e7SLb6-8Q-267" value="" style="shape=mxgraph.cisco.routers.router;html=1;dashed=0;fillColor=#036897;strokeColor=#ffffff;strokeWidth=2;verticalLabelPosition=bottom;verticalAlign=top;rounded=1;shadow=0;comic=0;fontFamily=Verdana;fontSize=12;" vertex="1" parent="1">
          <mxGeometry x="2190" y="1678" width="50" height="39" as="geometry" />
        </mxCell>
        <mxCell id="DTtLAvjLUg3e7SLb6-8Q-268" value="Cloud" style="ellipse;shape=cloud;whiteSpace=wrap;html=1;rounded=1;shadow=0;comic=0;strokeWidth=1;fontFamily=Verdana;fontSize=12;" vertex="1" parent="1">
          <mxGeometry x="2290" y="1717" width="50" height="30" as="geometry" />
        </mxCell>
        <mxCell id="DTtLAvjLUg3e7SLb6-8Q-269" style="edgeStyle=none;html=1;labelBackgroundColor=none;startFill=0;endArrow=none;endFill=0;strokeWidth=2;fontFamily=Verdana;fontSize=12;exitX=0.07;exitY=0.4;exitDx=0;exitDy=0;exitPerimeter=0;entryX=0.5;entryY=1;entryDx=0;entryDy=0;entryPerimeter=0;rounded=1;" edge="1" parent="1" source="DTtLAvjLUg3e7SLb6-8Q-268" target="DTtLAvjLUg3e7SLb6-8Q-267">
          <mxGeometry relative="1" as="geometry">
            <mxPoint x="2480" y="1702" as="sourcePoint" />
            <mxPoint x="2240" y="1697" as="targetPoint" />
            <Array as="points" />
          </mxGeometry>
        </mxCell>
        <mxCell id="DTtLAvjLUg3e7SLb6-8Q-270" style="edgeStyle=none;html=1;labelBackgroundColor=none;startFill=0;endArrow=none;endFill=0;strokeWidth=2;fontFamily=Verdana;fontSize=12;entryX=0.5;entryY=0;entryDx=0;entryDy=0;entryPerimeter=0;exitX=0.16;exitY=0.55;exitDx=0;exitDy=0;exitPerimeter=0;rounded=1;" edge="1" parent="1" source="DTtLAvjLUg3e7SLb6-8Q-266" target="DTtLAvjLUg3e7SLb6-8Q-267">
          <mxGeometry relative="1" as="geometry">
            <mxPoint x="2319" y="1666" as="sourcePoint" />
            <mxPoint x="2200" y="1652" as="targetPoint" />
            <Array as="points" />
          </mxGeometry>
        </mxCell>
        <mxCell id="DTtLAvjLUg3e7SLb6-8Q-285" value="" style="group" vertex="1" connectable="0" parent="1">
          <mxGeometry x="-950" y="10" width="1060" height="2070" as="geometry" />
        </mxCell>
        <mxCell id="DTtLAvjLUg3e7SLb6-8Q-47" value="002-Vitoria" style="whiteSpace=wrap;html=1;rounded=1;shadow=0;comic=0;strokeWidth=1;fontFamily=Verdana;fontSize=14;fillColor=#f5f5f5;strokeColor=none;verticalAlign=top;fontStyle=1" vertex="1" parent="DTtLAvjLUg3e7SLb6-8Q-285">
          <mxGeometry y="355.5828220858896" width="307.24637681159425" height="253.9877300613497" as="geometry" />
        </mxCell>
        <mxCell id="DTtLAvjLUg3e7SLb6-8Q-48" value="Cloud" style="ellipse;shape=cloud;whiteSpace=wrap;html=1;rounded=1;shadow=0;comic=0;strokeWidth=1;fontFamily=Verdana;fontSize=12;" vertex="1" parent="DTtLAvjLUg3e7SLb6-8Q-285">
          <mxGeometry x="184.34782608695656" y="406.3803680981595" width="76.81159420289856" height="38.09815950920245" as="geometry" />
        </mxCell>
        <mxCell id="DTtLAvjLUg3e7SLb6-8Q-49" value="" style="shape=mxgraph.cisco.routers.router;html=1;dashed=0;fillColor=#036897;strokeColor=#ffffff;strokeWidth=2;verticalLabelPosition=bottom;verticalAlign=top;rounded=1;shadow=0;comic=0;fontFamily=Verdana;fontSize=12;" vertex="1" parent="DTtLAvjLUg3e7SLb6-8Q-285">
          <mxGeometry x="30.724637681159425" y="464.79754601226995" width="76.81159420289856" height="49.527607361963184" as="geometry" />
        </mxCell>
        <mxCell id="DTtLAvjLUg3e7SLb6-8Q-50" value="Cloud" style="ellipse;shape=cloud;whiteSpace=wrap;html=1;rounded=1;shadow=0;comic=0;strokeWidth=1;fontFamily=Verdana;fontSize=12;" vertex="1" parent="DTtLAvjLUg3e7SLb6-8Q-285">
          <mxGeometry x="184.34782608695656" y="514.3251533742331" width="76.81159420289856" height="38.09815950920245" as="geometry" />
        </mxCell>
        <mxCell id="DTtLAvjLUg3e7SLb6-8Q-51" style="edgeStyle=none;html=1;labelBackgroundColor=none;startFill=0;endArrow=none;endFill=0;strokeWidth=2;fontFamily=Verdana;fontSize=12;exitX=0.07;exitY=0.4;exitDx=0;exitDy=0;exitPerimeter=0;entryX=0.5;entryY=1;entryDx=0;entryDy=0;entryPerimeter=0;rounded=1;" edge="1" parent="DTtLAvjLUg3e7SLb6-8Q-285" source="DTtLAvjLUg3e7SLb6-8Q-50" target="DTtLAvjLUg3e7SLb6-8Q-49">
          <mxGeometry relative="1" as="geometry">
            <mxPoint x="476.2318840579712" y="495.2760736196319" as="sourcePoint" />
            <mxPoint x="107.53623188405798" y="488.92638036809814" as="targetPoint" />
            <Array as="points" />
          </mxGeometry>
        </mxCell>
        <mxCell id="DTtLAvjLUg3e7SLb6-8Q-52" style="edgeStyle=none;html=1;labelBackgroundColor=none;startFill=0;endArrow=none;endFill=0;strokeWidth=2;fontFamily=Verdana;fontSize=12;entryX=0.5;entryY=0;entryDx=0;entryDy=0;entryPerimeter=0;exitX=0.16;exitY=0.55;exitDx=0;exitDy=0;exitPerimeter=0;rounded=1;" edge="1" parent="DTtLAvjLUg3e7SLb6-8Q-285" source="DTtLAvjLUg3e7SLb6-8Q-48" target="DTtLAvjLUg3e7SLb6-8Q-49">
          <mxGeometry relative="1" as="geometry">
            <mxPoint x="228.89855072463774" y="449.558282208589" as="sourcePoint" />
            <mxPoint x="46.08695652173914" y="431.7791411042945" as="targetPoint" />
            <Array as="points" />
          </mxGeometry>
        </mxCell>
        <mxCell id="DTtLAvjLUg3e7SLb6-8Q-53" value="003-Arcoverde" style="whiteSpace=wrap;html=1;rounded=1;shadow=0;comic=0;strokeWidth=1;fontFamily=Verdana;fontSize=14;fillColor=#f5f5f5;strokeColor=none;verticalAlign=top;fontStyle=1" vertex="1" parent="DTtLAvjLUg3e7SLb6-8Q-285">
          <mxGeometry y="736.564417177914" width="307.24637681159425" height="253.9877300613497" as="geometry" />
        </mxCell>
        <mxCell id="DTtLAvjLUg3e7SLb6-8Q-54" value="Cloud" style="ellipse;shape=cloud;whiteSpace=wrap;html=1;rounded=1;shadow=0;comic=0;strokeWidth=1;fontFamily=Verdana;fontSize=12;" vertex="1" parent="DTtLAvjLUg3e7SLb6-8Q-285">
          <mxGeometry x="184.34782608695656" y="787.3619631901839" width="76.81159420289856" height="38.09815950920245" as="geometry" />
        </mxCell>
        <mxCell id="DTtLAvjLUg3e7SLb6-8Q-55" value="" style="shape=mxgraph.cisco.routers.router;html=1;dashed=0;fillColor=#036897;strokeColor=#ffffff;strokeWidth=2;verticalLabelPosition=bottom;verticalAlign=top;rounded=1;shadow=0;comic=0;fontFamily=Verdana;fontSize=12;" vertex="1" parent="DTtLAvjLUg3e7SLb6-8Q-285">
          <mxGeometry x="30.724637681159425" y="845.7791411042945" width="76.81159420289856" height="49.527607361963184" as="geometry" />
        </mxCell>
        <mxCell id="DTtLAvjLUg3e7SLb6-8Q-56" value="Cloud" style="ellipse;shape=cloud;whiteSpace=wrap;html=1;rounded=1;shadow=0;comic=0;strokeWidth=1;fontFamily=Verdana;fontSize=12;" vertex="1" parent="DTtLAvjLUg3e7SLb6-8Q-285">
          <mxGeometry x="184.34782608695656" y="895.3067484662577" width="76.81159420289856" height="38.09815950920245" as="geometry" />
        </mxCell>
        <mxCell id="DTtLAvjLUg3e7SLb6-8Q-57" style="edgeStyle=none;html=1;labelBackgroundColor=none;startFill=0;endArrow=none;endFill=0;strokeWidth=2;fontFamily=Verdana;fontSize=12;exitX=0.07;exitY=0.4;exitDx=0;exitDy=0;exitPerimeter=0;entryX=0.5;entryY=1;entryDx=0;entryDy=0;entryPerimeter=0;rounded=1;" edge="1" parent="DTtLAvjLUg3e7SLb6-8Q-285" source="DTtLAvjLUg3e7SLb6-8Q-56" target="DTtLAvjLUg3e7SLb6-8Q-55">
          <mxGeometry relative="1" as="geometry">
            <mxPoint x="476.2318840579712" y="876.2576687116564" as="sourcePoint" />
            <mxPoint x="107.53623188405798" y="869.9079754601228" as="targetPoint" />
            <Array as="points" />
          </mxGeometry>
        </mxCell>
        <mxCell id="DTtLAvjLUg3e7SLb6-8Q-58" style="edgeStyle=none;html=1;labelBackgroundColor=none;startFill=0;endArrow=none;endFill=0;strokeWidth=2;fontFamily=Verdana;fontSize=12;entryX=0.5;entryY=0;entryDx=0;entryDy=0;entryPerimeter=0;exitX=0.16;exitY=0.55;exitDx=0;exitDy=0;exitPerimeter=0;rounded=1;" edge="1" parent="DTtLAvjLUg3e7SLb6-8Q-285" source="DTtLAvjLUg3e7SLb6-8Q-54" target="DTtLAvjLUg3e7SLb6-8Q-55">
          <mxGeometry relative="1" as="geometry">
            <mxPoint x="228.89855072463774" y="830.5398773006135" as="sourcePoint" />
            <mxPoint x="46.08695652173914" y="812.760736196319" as="targetPoint" />
            <Array as="points" />
          </mxGeometry>
        </mxCell>
        <mxCell id="DTtLAvjLUg3e7SLb6-8Q-59" value="004-SantaCruz" style="whiteSpace=wrap;html=1;rounded=1;shadow=0;comic=0;strokeWidth=1;fontFamily=Verdana;fontSize=14;fillColor=#f5f5f5;strokeColor=none;verticalAlign=top;fontStyle=1" vertex="1" parent="DTtLAvjLUg3e7SLb6-8Q-285">
          <mxGeometry y="1104.8466257668713" width="307.24637681159425" height="253.9877300613497" as="geometry" />
        </mxCell>
        <mxCell id="DTtLAvjLUg3e7SLb6-8Q-60" value="Cloud" style="ellipse;shape=cloud;whiteSpace=wrap;html=1;rounded=1;shadow=0;comic=0;strokeWidth=1;fontFamily=Verdana;fontSize=12;" vertex="1" parent="DTtLAvjLUg3e7SLb6-8Q-285">
          <mxGeometry x="184.34782608695656" y="1155.644171779141" width="76.81159420289856" height="38.09815950920245" as="geometry" />
        </mxCell>
        <mxCell id="DTtLAvjLUg3e7SLb6-8Q-61" value="" style="shape=mxgraph.cisco.routers.router;html=1;dashed=0;fillColor=#036897;strokeColor=#ffffff;strokeWidth=2;verticalLabelPosition=bottom;verticalAlign=top;rounded=1;shadow=0;comic=0;fontFamily=Verdana;fontSize=12;" vertex="1" parent="DTtLAvjLUg3e7SLb6-8Q-285">
          <mxGeometry x="30.724637681159425" y="1214.0613496932517" width="76.81159420289856" height="49.527607361963184" as="geometry" />
        </mxCell>
        <mxCell id="DTtLAvjLUg3e7SLb6-8Q-62" value="Cloud" style="ellipse;shape=cloud;whiteSpace=wrap;html=1;rounded=1;shadow=0;comic=0;strokeWidth=1;fontFamily=Verdana;fontSize=12;" vertex="1" parent="DTtLAvjLUg3e7SLb6-8Q-285">
          <mxGeometry x="184.34782608695656" y="1263.5889570552147" width="76.81159420289856" height="38.09815950920245" as="geometry" />
        </mxCell>
        <mxCell id="DTtLAvjLUg3e7SLb6-8Q-63" style="edgeStyle=none;html=1;labelBackgroundColor=none;startFill=0;endArrow=none;endFill=0;strokeWidth=2;fontFamily=Verdana;fontSize=12;exitX=0.07;exitY=0.4;exitDx=0;exitDy=0;exitPerimeter=0;entryX=0.5;entryY=1;entryDx=0;entryDy=0;entryPerimeter=0;rounded=1;" edge="1" parent="DTtLAvjLUg3e7SLb6-8Q-285" source="DTtLAvjLUg3e7SLb6-8Q-62" target="DTtLAvjLUg3e7SLb6-8Q-61">
          <mxGeometry relative="1" as="geometry">
            <mxPoint x="476.2318840579712" y="1244.5398773006136" as="sourcePoint" />
            <mxPoint x="107.53623188405798" y="1238.19018404908" as="targetPoint" />
            <Array as="points" />
          </mxGeometry>
        </mxCell>
        <mxCell id="DTtLAvjLUg3e7SLb6-8Q-64" style="edgeStyle=none;html=1;labelBackgroundColor=none;startFill=0;endArrow=none;endFill=0;strokeWidth=2;fontFamily=Verdana;fontSize=12;entryX=0.5;entryY=0;entryDx=0;entryDy=0;entryPerimeter=0;exitX=0.16;exitY=0.55;exitDx=0;exitDy=0;exitPerimeter=0;rounded=1;" edge="1" parent="DTtLAvjLUg3e7SLb6-8Q-285" source="DTtLAvjLUg3e7SLb6-8Q-60" target="DTtLAvjLUg3e7SLb6-8Q-61">
          <mxGeometry relative="1" as="geometry">
            <mxPoint x="228.89855072463774" y="1198.8220858895706" as="sourcePoint" />
            <mxPoint x="46.08695652173914" y="1181.042944785276" as="targetPoint" />
            <Array as="points" />
          </mxGeometry>
        </mxCell>
        <mxCell id="DTtLAvjLUg3e7SLb6-8Q-65" value="005-Bongi" style="whiteSpace=wrap;html=1;rounded=1;shadow=0;comic=0;strokeWidth=1;fontFamily=Verdana;fontSize=14;fillColor=#f5f5f5;strokeColor=none;verticalAlign=top;fontStyle=1" vertex="1" parent="DTtLAvjLUg3e7SLb6-8Q-285">
          <mxGeometry y="1460.4294478527606" width="307.24637681159425" height="253.9877300613497" as="geometry" />
        </mxCell>
        <mxCell id="DTtLAvjLUg3e7SLb6-8Q-66" value="Cloud" style="ellipse;shape=cloud;whiteSpace=wrap;html=1;rounded=1;shadow=0;comic=0;strokeWidth=1;fontFamily=Verdana;fontSize=12;" vertex="1" parent="DTtLAvjLUg3e7SLb6-8Q-285">
          <mxGeometry x="184.34782608695656" y="1511.2269938650306" width="76.81159420289856" height="38.09815950920245" as="geometry" />
        </mxCell>
        <mxCell id="DTtLAvjLUg3e7SLb6-8Q-67" value="" style="shape=mxgraph.cisco.routers.router;html=1;dashed=0;fillColor=#036897;strokeColor=#ffffff;strokeWidth=2;verticalLabelPosition=bottom;verticalAlign=top;rounded=1;shadow=0;comic=0;fontFamily=Verdana;fontSize=12;" vertex="1" parent="DTtLAvjLUg3e7SLb6-8Q-285">
          <mxGeometry x="30.724637681159425" y="1569.644171779141" width="76.81159420289856" height="49.527607361963184" as="geometry" />
        </mxCell>
        <mxCell id="DTtLAvjLUg3e7SLb6-8Q-68" value="Cloud" style="ellipse;shape=cloud;whiteSpace=wrap;html=1;rounded=1;shadow=0;comic=0;strokeWidth=1;fontFamily=Verdana;fontSize=12;" vertex="1" parent="DTtLAvjLUg3e7SLb6-8Q-285">
          <mxGeometry x="184.34782608695656" y="1619.1717791411043" width="76.81159420289856" height="38.09815950920245" as="geometry" />
        </mxCell>
        <mxCell id="DTtLAvjLUg3e7SLb6-8Q-69" style="edgeStyle=none;html=1;labelBackgroundColor=none;startFill=0;endArrow=none;endFill=0;strokeWidth=2;fontFamily=Verdana;fontSize=12;exitX=0.07;exitY=0.4;exitDx=0;exitDy=0;exitPerimeter=0;entryX=0.5;entryY=1;entryDx=0;entryDy=0;entryPerimeter=0;rounded=1;" edge="1" parent="DTtLAvjLUg3e7SLb6-8Q-285" source="DTtLAvjLUg3e7SLb6-8Q-68" target="DTtLAvjLUg3e7SLb6-8Q-67">
          <mxGeometry relative="1" as="geometry">
            <mxPoint x="476.2318840579712" y="1600.1226993865032" as="sourcePoint" />
            <mxPoint x="107.53623188405798" y="1593.7730061349694" as="targetPoint" />
            <Array as="points" />
          </mxGeometry>
        </mxCell>
        <mxCell id="DTtLAvjLUg3e7SLb6-8Q-70" style="edgeStyle=none;html=1;labelBackgroundColor=none;startFill=0;endArrow=none;endFill=0;strokeWidth=2;fontFamily=Verdana;fontSize=12;entryX=0.5;entryY=0;entryDx=0;entryDy=0;entryPerimeter=0;exitX=0.16;exitY=0.55;exitDx=0;exitDy=0;exitPerimeter=0;rounded=1;" edge="1" parent="DTtLAvjLUg3e7SLb6-8Q-285" source="DTtLAvjLUg3e7SLb6-8Q-66" target="DTtLAvjLUg3e7SLb6-8Q-67">
          <mxGeometry relative="1" as="geometry">
            <mxPoint x="228.89855072463774" y="1554.40490797546" as="sourcePoint" />
            <mxPoint x="46.08695652173914" y="1536.6257668711658" as="targetPoint" />
            <Array as="points" />
          </mxGeometry>
        </mxCell>
        <mxCell id="DTtLAvjLUg3e7SLb6-8Q-71" value="006-Paulista" style="whiteSpace=wrap;html=1;rounded=1;shadow=0;comic=0;strokeWidth=1;fontFamily=Verdana;fontSize=14;fillColor=#f5f5f5;strokeColor=none;verticalAlign=top;fontStyle=1" vertex="1" parent="DTtLAvjLUg3e7SLb6-8Q-285">
          <mxGeometry y="1816.0122699386502" width="307.24637681159425" height="253.9877300613497" as="geometry" />
        </mxCell>
        <mxCell id="DTtLAvjLUg3e7SLb6-8Q-72" value="Cloud" style="ellipse;shape=cloud;whiteSpace=wrap;html=1;rounded=1;shadow=0;comic=0;strokeWidth=1;fontFamily=Verdana;fontSize=12;" vertex="1" parent="DTtLAvjLUg3e7SLb6-8Q-285">
          <mxGeometry x="184.34782608695656" y="1869.3496932515338" width="76.81159420289856" height="38.09815950920245" as="geometry" />
        </mxCell>
        <mxCell id="DTtLAvjLUg3e7SLb6-8Q-73" value="" style="shape=mxgraph.cisco.routers.router;html=1;dashed=0;fillColor=#036897;strokeColor=#ffffff;strokeWidth=2;verticalLabelPosition=bottom;verticalAlign=top;rounded=1;shadow=0;comic=0;fontFamily=Verdana;fontSize=12;" vertex="1" parent="DTtLAvjLUg3e7SLb6-8Q-285">
          <mxGeometry x="30.724637681159425" y="1927.766871165644" width="76.81159420289856" height="49.527607361963184" as="geometry" />
        </mxCell>
        <mxCell id="DTtLAvjLUg3e7SLb6-8Q-74" value="Cloud" style="ellipse;shape=cloud;whiteSpace=wrap;html=1;rounded=1;shadow=0;comic=0;strokeWidth=1;fontFamily=Verdana;fontSize=12;" vertex="1" parent="DTtLAvjLUg3e7SLb6-8Q-285">
          <mxGeometry x="184.34782608695656" y="1977.2944785276075" width="76.81159420289856" height="38.09815950920245" as="geometry" />
        </mxCell>
        <mxCell id="DTtLAvjLUg3e7SLb6-8Q-75" style="edgeStyle=none;html=1;labelBackgroundColor=none;startFill=0;endArrow=none;endFill=0;strokeWidth=2;fontFamily=Verdana;fontSize=12;exitX=0.07;exitY=0.4;exitDx=0;exitDy=0;exitPerimeter=0;entryX=0.5;entryY=1;entryDx=0;entryDy=0;entryPerimeter=0;rounded=1;" edge="1" parent="DTtLAvjLUg3e7SLb6-8Q-285" source="DTtLAvjLUg3e7SLb6-8Q-74" target="DTtLAvjLUg3e7SLb6-8Q-73">
          <mxGeometry relative="1" as="geometry">
            <mxPoint x="476.2318840579712" y="1958.245398773006" as="sourcePoint" />
            <mxPoint x="107.53623188405798" y="1951.895705521472" as="targetPoint" />
            <Array as="points" />
          </mxGeometry>
        </mxCell>
        <mxCell id="DTtLAvjLUg3e7SLb6-8Q-76" style="edgeStyle=none;html=1;labelBackgroundColor=none;startFill=0;endArrow=none;endFill=0;strokeWidth=2;fontFamily=Verdana;fontSize=12;entryX=0.5;entryY=0;entryDx=0;entryDy=0;entryPerimeter=0;exitX=0.16;exitY=0.55;exitDx=0;exitDy=0;exitPerimeter=0;rounded=1;" edge="1" parent="DTtLAvjLUg3e7SLb6-8Q-285" source="DTtLAvjLUg3e7SLb6-8Q-72" target="DTtLAvjLUg3e7SLb6-8Q-73">
          <mxGeometry relative="1" as="geometry">
            <mxPoint x="228.89855072463774" y="1912.5276073619632" as="sourcePoint" />
            <mxPoint x="46.08695652173914" y="1894.7484662576687" as="targetPoint" />
            <Array as="points" />
          </mxGeometry>
        </mxCell>
        <mxCell id="DTtLAvjLUg3e7SLb6-8Q-91" value="001 - Carpina" style="whiteSpace=wrap;html=1;rounded=1;shadow=0;comic=0;strokeWidth=1;fontFamily=Verdana;fontSize=14;fillColor=#f5f5f5;strokeColor=none;verticalAlign=top;fontStyle=1" vertex="1" parent="DTtLAvjLUg3e7SLb6-8Q-285">
          <mxGeometry x="353.3333333333334" width="307.24637681159425" height="253.9877300613497" as="geometry" />
        </mxCell>
        <mxCell id="DTtLAvjLUg3e7SLb6-8Q-92" value="Cloud" style="ellipse;shape=cloud;whiteSpace=wrap;html=1;rounded=1;shadow=0;comic=0;strokeWidth=1;fontFamily=Verdana;fontSize=12;" vertex="1" parent="DTtLAvjLUg3e7SLb6-8Q-285">
          <mxGeometry x="537.6811594202901" y="50.79754601226994" width="76.81159420289856" height="38.09815950920245" as="geometry" />
        </mxCell>
        <mxCell id="DTtLAvjLUg3e7SLb6-8Q-93" value="" style="shape=mxgraph.cisco.routers.router;html=1;dashed=0;fillColor=#036897;strokeColor=#ffffff;strokeWidth=2;verticalLabelPosition=bottom;verticalAlign=top;rounded=1;shadow=0;comic=0;fontFamily=Verdana;fontSize=12;" vertex="1" parent="DTtLAvjLUg3e7SLb6-8Q-285">
          <mxGeometry x="384.0579710144928" y="109.21472392638039" width="76.81159420289856" height="49.527607361963184" as="geometry" />
        </mxCell>
        <mxCell id="DTtLAvjLUg3e7SLb6-8Q-94" value="Cloud" style="ellipse;shape=cloud;whiteSpace=wrap;html=1;rounded=1;shadow=0;comic=0;strokeWidth=1;fontFamily=Verdana;fontSize=12;" vertex="1" parent="DTtLAvjLUg3e7SLb6-8Q-285">
          <mxGeometry x="537.6811594202901" y="158.74233128834354" width="76.81159420289856" height="38.09815950920245" as="geometry" />
        </mxCell>
        <mxCell id="DTtLAvjLUg3e7SLb6-8Q-95" style="edgeStyle=none;html=1;labelBackgroundColor=none;startFill=0;endArrow=none;endFill=0;strokeWidth=2;fontFamily=Verdana;fontSize=12;exitX=0.07;exitY=0.4;exitDx=0;exitDy=0;exitPerimeter=0;entryX=0.5;entryY=1;entryDx=0;entryDy=0;entryPerimeter=0;rounded=1;" edge="1" parent="DTtLAvjLUg3e7SLb6-8Q-285" source="DTtLAvjLUg3e7SLb6-8Q-94" target="DTtLAvjLUg3e7SLb6-8Q-93">
          <mxGeometry relative="1" as="geometry">
            <mxPoint x="829.5652173913045" y="139.69325153374234" as="sourcePoint" />
            <mxPoint x="460.8695652173914" y="133.3435582822086" as="targetPoint" />
            <Array as="points" />
          </mxGeometry>
        </mxCell>
        <mxCell id="DTtLAvjLUg3e7SLb6-8Q-96" style="edgeStyle=none;html=1;labelBackgroundColor=none;startFill=0;endArrow=none;endFill=0;strokeWidth=2;fontFamily=Verdana;fontSize=12;entryX=0.5;entryY=0;entryDx=0;entryDy=0;entryPerimeter=0;exitX=0.16;exitY=0.55;exitDx=0;exitDy=0;exitPerimeter=0;rounded=1;" edge="1" parent="DTtLAvjLUg3e7SLb6-8Q-285" source="DTtLAvjLUg3e7SLb6-8Q-92" target="DTtLAvjLUg3e7SLb6-8Q-93">
          <mxGeometry relative="1" as="geometry">
            <mxPoint x="582.231884057971" y="93.97546012269939" as="sourcePoint" />
            <mxPoint x="399.42028985507255" y="76.1963190184049" as="targetPoint" />
            <Array as="points" />
          </mxGeometry>
        </mxCell>
        <mxCell id="DTtLAvjLUg3e7SLb6-8Q-97" value="002-Vitoria" style="whiteSpace=wrap;html=1;rounded=1;shadow=0;comic=0;strokeWidth=1;fontFamily=Verdana;fontSize=14;verticalAlign=top;fontStyle=1;fillColor=#f5f5f5;fontColor=#333333;strokeColor=#666666;" vertex="1" parent="DTtLAvjLUg3e7SLb6-8Q-285">
          <mxGeometry x="353.3333333333334" y="355.5828220858896" width="307.24637681159425" height="253.9877300613497" as="geometry" />
        </mxCell>
        <mxCell id="DTtLAvjLUg3e7SLb6-8Q-98" value="Cloud" style="ellipse;shape=cloud;whiteSpace=wrap;html=1;rounded=1;shadow=0;comic=0;strokeWidth=1;fontFamily=Verdana;fontSize=12;" vertex="1" parent="DTtLAvjLUg3e7SLb6-8Q-285">
          <mxGeometry x="537.6811594202901" y="406.3803680981595" width="76.81159420289856" height="38.09815950920245" as="geometry" />
        </mxCell>
        <mxCell id="DTtLAvjLUg3e7SLb6-8Q-99" value="" style="shape=mxgraph.cisco.routers.router;html=1;dashed=0;fillColor=#036897;strokeColor=#ffffff;strokeWidth=2;verticalLabelPosition=bottom;verticalAlign=top;rounded=1;shadow=0;comic=0;fontFamily=Verdana;fontSize=12;" vertex="1" parent="DTtLAvjLUg3e7SLb6-8Q-285">
          <mxGeometry x="384.0579710144928" y="464.79754601226995" width="76.81159420289856" height="49.527607361963184" as="geometry" />
        </mxCell>
        <mxCell id="DTtLAvjLUg3e7SLb6-8Q-100" value="Cloud" style="ellipse;shape=cloud;whiteSpace=wrap;html=1;rounded=1;shadow=0;comic=0;strokeWidth=1;fontFamily=Verdana;fontSize=12;" vertex="1" parent="DTtLAvjLUg3e7SLb6-8Q-285">
          <mxGeometry x="537.6811594202901" y="514.3251533742331" width="76.81159420289856" height="38.09815950920245" as="geometry" />
        </mxCell>
        <mxCell id="DTtLAvjLUg3e7SLb6-8Q-101" style="edgeStyle=none;html=1;labelBackgroundColor=none;startFill=0;endArrow=none;endFill=0;strokeWidth=2;fontFamily=Verdana;fontSize=12;exitX=0.07;exitY=0.4;exitDx=0;exitDy=0;exitPerimeter=0;entryX=0.5;entryY=1;entryDx=0;entryDy=0;entryPerimeter=0;rounded=1;" edge="1" parent="DTtLAvjLUg3e7SLb6-8Q-285" source="DTtLAvjLUg3e7SLb6-8Q-100" target="DTtLAvjLUg3e7SLb6-8Q-99">
          <mxGeometry relative="1" as="geometry">
            <mxPoint x="829.5652173913045" y="495.2760736196319" as="sourcePoint" />
            <mxPoint x="460.8695652173914" y="488.92638036809814" as="targetPoint" />
            <Array as="points" />
          </mxGeometry>
        </mxCell>
        <mxCell id="DTtLAvjLUg3e7SLb6-8Q-102" style="edgeStyle=none;html=1;labelBackgroundColor=none;startFill=0;endArrow=none;endFill=0;strokeWidth=2;fontFamily=Verdana;fontSize=12;entryX=0.5;entryY=0;entryDx=0;entryDy=0;entryPerimeter=0;exitX=0.16;exitY=0.55;exitDx=0;exitDy=0;exitPerimeter=0;rounded=1;" edge="1" parent="DTtLAvjLUg3e7SLb6-8Q-285" source="DTtLAvjLUg3e7SLb6-8Q-98" target="DTtLAvjLUg3e7SLb6-8Q-99">
          <mxGeometry relative="1" as="geometry">
            <mxPoint x="582.231884057971" y="449.558282208589" as="sourcePoint" />
            <mxPoint x="399.42028985507255" y="431.7791411042945" as="targetPoint" />
            <Array as="points" />
          </mxGeometry>
        </mxCell>
        <mxCell id="DTtLAvjLUg3e7SLb6-8Q-103" value="003-Arcoverde" style="whiteSpace=wrap;html=1;rounded=1;shadow=0;comic=0;strokeWidth=1;fontFamily=Verdana;fontSize=14;fillColor=#f5f5f5;strokeColor=none;verticalAlign=top;fontStyle=1" vertex="1" parent="DTtLAvjLUg3e7SLb6-8Q-285">
          <mxGeometry x="353.3333333333334" y="736.564417177914" width="307.24637681159425" height="253.9877300613497" as="geometry" />
        </mxCell>
        <mxCell id="DTtLAvjLUg3e7SLb6-8Q-104" value="Cloud" style="ellipse;shape=cloud;whiteSpace=wrap;html=1;rounded=1;shadow=0;comic=0;strokeWidth=1;fontFamily=Verdana;fontSize=12;" vertex="1" parent="DTtLAvjLUg3e7SLb6-8Q-285">
          <mxGeometry x="537.6811594202901" y="787.3619631901839" width="76.81159420289856" height="38.09815950920245" as="geometry" />
        </mxCell>
        <mxCell id="DTtLAvjLUg3e7SLb6-8Q-105" value="" style="shape=mxgraph.cisco.routers.router;html=1;dashed=0;fillColor=#036897;strokeColor=#ffffff;strokeWidth=2;verticalLabelPosition=bottom;verticalAlign=top;rounded=1;shadow=0;comic=0;fontFamily=Verdana;fontSize=12;" vertex="1" parent="DTtLAvjLUg3e7SLb6-8Q-285">
          <mxGeometry x="384.0579710144928" y="845.7791411042945" width="76.81159420289856" height="49.527607361963184" as="geometry" />
        </mxCell>
        <mxCell id="DTtLAvjLUg3e7SLb6-8Q-106" value="Cloud" style="ellipse;shape=cloud;whiteSpace=wrap;html=1;rounded=1;shadow=0;comic=0;strokeWidth=1;fontFamily=Verdana;fontSize=12;" vertex="1" parent="DTtLAvjLUg3e7SLb6-8Q-285">
          <mxGeometry x="537.6811594202901" y="895.3067484662577" width="76.81159420289856" height="38.09815950920245" as="geometry" />
        </mxCell>
        <mxCell id="DTtLAvjLUg3e7SLb6-8Q-107" style="edgeStyle=none;html=1;labelBackgroundColor=none;startFill=0;endArrow=none;endFill=0;strokeWidth=2;fontFamily=Verdana;fontSize=12;exitX=0.07;exitY=0.4;exitDx=0;exitDy=0;exitPerimeter=0;entryX=0.5;entryY=1;entryDx=0;entryDy=0;entryPerimeter=0;rounded=1;" edge="1" parent="DTtLAvjLUg3e7SLb6-8Q-285" source="DTtLAvjLUg3e7SLb6-8Q-106" target="DTtLAvjLUg3e7SLb6-8Q-105">
          <mxGeometry relative="1" as="geometry">
            <mxPoint x="829.5652173913045" y="876.2576687116564" as="sourcePoint" />
            <mxPoint x="460.8695652173914" y="869.9079754601228" as="targetPoint" />
            <Array as="points" />
          </mxGeometry>
        </mxCell>
        <mxCell id="DTtLAvjLUg3e7SLb6-8Q-108" style="edgeStyle=none;html=1;labelBackgroundColor=none;startFill=0;endArrow=none;endFill=0;strokeWidth=2;fontFamily=Verdana;fontSize=12;entryX=0.5;entryY=0;entryDx=0;entryDy=0;entryPerimeter=0;exitX=0.16;exitY=0.55;exitDx=0;exitDy=0;exitPerimeter=0;rounded=1;" edge="1" parent="DTtLAvjLUg3e7SLb6-8Q-285" source="DTtLAvjLUg3e7SLb6-8Q-104" target="DTtLAvjLUg3e7SLb6-8Q-105">
          <mxGeometry relative="1" as="geometry">
            <mxPoint x="582.231884057971" y="830.5398773006135" as="sourcePoint" />
            <mxPoint x="399.42028985507255" y="812.760736196319" as="targetPoint" />
            <Array as="points" />
          </mxGeometry>
        </mxCell>
        <mxCell id="DTtLAvjLUg3e7SLb6-8Q-109" value="004-SantaCruz" style="whiteSpace=wrap;html=1;rounded=1;shadow=0;comic=0;strokeWidth=1;fontFamily=Verdana;fontSize=14;fillColor=#f5f5f5;strokeColor=none;verticalAlign=top;fontStyle=1" vertex="1" parent="DTtLAvjLUg3e7SLb6-8Q-285">
          <mxGeometry x="353.3333333333334" y="1104.8466257668713" width="307.24637681159425" height="253.9877300613497" as="geometry" />
        </mxCell>
        <mxCell id="DTtLAvjLUg3e7SLb6-8Q-110" value="Cloud" style="ellipse;shape=cloud;whiteSpace=wrap;html=1;rounded=1;shadow=0;comic=0;strokeWidth=1;fontFamily=Verdana;fontSize=12;" vertex="1" parent="DTtLAvjLUg3e7SLb6-8Q-285">
          <mxGeometry x="537.6811594202901" y="1155.644171779141" width="76.81159420289856" height="38.09815950920245" as="geometry" />
        </mxCell>
        <mxCell id="DTtLAvjLUg3e7SLb6-8Q-111" value="" style="shape=mxgraph.cisco.routers.router;html=1;dashed=0;fillColor=#036897;strokeColor=#ffffff;strokeWidth=2;verticalLabelPosition=bottom;verticalAlign=top;rounded=1;shadow=0;comic=0;fontFamily=Verdana;fontSize=12;" vertex="1" parent="DTtLAvjLUg3e7SLb6-8Q-285">
          <mxGeometry x="384.0579710144928" y="1214.0613496932517" width="76.81159420289856" height="49.527607361963184" as="geometry" />
        </mxCell>
        <mxCell id="DTtLAvjLUg3e7SLb6-8Q-112" value="Cloud" style="ellipse;shape=cloud;whiteSpace=wrap;html=1;rounded=1;shadow=0;comic=0;strokeWidth=1;fontFamily=Verdana;fontSize=12;" vertex="1" parent="DTtLAvjLUg3e7SLb6-8Q-285">
          <mxGeometry x="537.6811594202901" y="1263.5889570552147" width="76.81159420289856" height="38.09815950920245" as="geometry" />
        </mxCell>
        <mxCell id="DTtLAvjLUg3e7SLb6-8Q-113" style="edgeStyle=none;html=1;labelBackgroundColor=none;startFill=0;endArrow=none;endFill=0;strokeWidth=2;fontFamily=Verdana;fontSize=12;exitX=0.07;exitY=0.4;exitDx=0;exitDy=0;exitPerimeter=0;entryX=0.5;entryY=1;entryDx=0;entryDy=0;entryPerimeter=0;rounded=1;" edge="1" parent="DTtLAvjLUg3e7SLb6-8Q-285" source="DTtLAvjLUg3e7SLb6-8Q-112" target="DTtLAvjLUg3e7SLb6-8Q-111">
          <mxGeometry relative="1" as="geometry">
            <mxPoint x="829.5652173913045" y="1244.5398773006136" as="sourcePoint" />
            <mxPoint x="460.8695652173914" y="1238.19018404908" as="targetPoint" />
            <Array as="points" />
          </mxGeometry>
        </mxCell>
        <mxCell id="DTtLAvjLUg3e7SLb6-8Q-114" style="edgeStyle=none;html=1;labelBackgroundColor=none;startFill=0;endArrow=none;endFill=0;strokeWidth=2;fontFamily=Verdana;fontSize=12;entryX=0.5;entryY=0;entryDx=0;entryDy=0;entryPerimeter=0;exitX=0.16;exitY=0.55;exitDx=0;exitDy=0;exitPerimeter=0;rounded=1;" edge="1" parent="DTtLAvjLUg3e7SLb6-8Q-285" source="DTtLAvjLUg3e7SLb6-8Q-110" target="DTtLAvjLUg3e7SLb6-8Q-111">
          <mxGeometry relative="1" as="geometry">
            <mxPoint x="582.231884057971" y="1198.8220858895706" as="sourcePoint" />
            <mxPoint x="399.42028985507255" y="1181.042944785276" as="targetPoint" />
            <Array as="points" />
          </mxGeometry>
        </mxCell>
        <mxCell id="DTtLAvjLUg3e7SLb6-8Q-115" value="005-Bongi" style="whiteSpace=wrap;html=1;rounded=1;shadow=0;comic=0;strokeWidth=1;fontFamily=Verdana;fontSize=14;fillColor=#f5f5f5;strokeColor=none;verticalAlign=top;fontStyle=1" vertex="1" parent="DTtLAvjLUg3e7SLb6-8Q-285">
          <mxGeometry x="353.3333333333334" y="1460.4294478527606" width="307.24637681159425" height="253.9877300613497" as="geometry" />
        </mxCell>
        <mxCell id="DTtLAvjLUg3e7SLb6-8Q-116" value="Cloud" style="ellipse;shape=cloud;whiteSpace=wrap;html=1;rounded=1;shadow=0;comic=0;strokeWidth=1;fontFamily=Verdana;fontSize=12;" vertex="1" parent="DTtLAvjLUg3e7SLb6-8Q-285">
          <mxGeometry x="537.6811594202901" y="1511.2269938650306" width="76.81159420289856" height="38.09815950920245" as="geometry" />
        </mxCell>
        <mxCell id="DTtLAvjLUg3e7SLb6-8Q-117" value="" style="shape=mxgraph.cisco.routers.router;html=1;dashed=0;fillColor=#036897;strokeColor=#ffffff;strokeWidth=2;verticalLabelPosition=bottom;verticalAlign=top;rounded=1;shadow=0;comic=0;fontFamily=Verdana;fontSize=12;" vertex="1" parent="DTtLAvjLUg3e7SLb6-8Q-285">
          <mxGeometry x="384.0579710144928" y="1569.644171779141" width="76.81159420289856" height="49.527607361963184" as="geometry" />
        </mxCell>
        <mxCell id="DTtLAvjLUg3e7SLb6-8Q-118" value="Cloud" style="ellipse;shape=cloud;whiteSpace=wrap;html=1;rounded=1;shadow=0;comic=0;strokeWidth=1;fontFamily=Verdana;fontSize=12;" vertex="1" parent="DTtLAvjLUg3e7SLb6-8Q-285">
          <mxGeometry x="537.6811594202901" y="1619.1717791411043" width="76.81159420289856" height="38.09815950920245" as="geometry" />
        </mxCell>
        <mxCell id="DTtLAvjLUg3e7SLb6-8Q-119" style="edgeStyle=none;html=1;labelBackgroundColor=none;startFill=0;endArrow=none;endFill=0;strokeWidth=2;fontFamily=Verdana;fontSize=12;exitX=0.07;exitY=0.4;exitDx=0;exitDy=0;exitPerimeter=0;entryX=0.5;entryY=1;entryDx=0;entryDy=0;entryPerimeter=0;rounded=1;" edge="1" parent="DTtLAvjLUg3e7SLb6-8Q-285" source="DTtLAvjLUg3e7SLb6-8Q-118" target="DTtLAvjLUg3e7SLb6-8Q-117">
          <mxGeometry relative="1" as="geometry">
            <mxPoint x="829.5652173913045" y="1600.1226993865032" as="sourcePoint" />
            <mxPoint x="460.8695652173914" y="1593.7730061349694" as="targetPoint" />
            <Array as="points" />
          </mxGeometry>
        </mxCell>
        <mxCell id="DTtLAvjLUg3e7SLb6-8Q-120" style="edgeStyle=none;html=1;labelBackgroundColor=none;startFill=0;endArrow=none;endFill=0;strokeWidth=2;fontFamily=Verdana;fontSize=12;entryX=0.5;entryY=0;entryDx=0;entryDy=0;entryPerimeter=0;exitX=0.16;exitY=0.55;exitDx=0;exitDy=0;exitPerimeter=0;rounded=1;" edge="1" parent="DTtLAvjLUg3e7SLb6-8Q-285" source="DTtLAvjLUg3e7SLb6-8Q-116" target="DTtLAvjLUg3e7SLb6-8Q-117">
          <mxGeometry relative="1" as="geometry">
            <mxPoint x="582.231884057971" y="1554.40490797546" as="sourcePoint" />
            <mxPoint x="399.42028985507255" y="1536.6257668711658" as="targetPoint" />
            <Array as="points" />
          </mxGeometry>
        </mxCell>
        <mxCell id="DTtLAvjLUg3e7SLb6-8Q-121" value="006-Paulista" style="whiteSpace=wrap;html=1;rounded=1;shadow=0;comic=0;strokeWidth=1;fontFamily=Verdana;fontSize=14;fillColor=#f5f5f5;strokeColor=none;verticalAlign=top;fontStyle=1" vertex="1" parent="DTtLAvjLUg3e7SLb6-8Q-285">
          <mxGeometry x="353.3333333333334" y="1816.0122699386502" width="307.24637681159425" height="253.9877300613497" as="geometry" />
        </mxCell>
        <mxCell id="DTtLAvjLUg3e7SLb6-8Q-122" value="Cloud" style="ellipse;shape=cloud;whiteSpace=wrap;html=1;rounded=1;shadow=0;comic=0;strokeWidth=1;fontFamily=Verdana;fontSize=12;" vertex="1" parent="DTtLAvjLUg3e7SLb6-8Q-285">
          <mxGeometry x="537.6811594202901" y="1869.3496932515338" width="76.81159420289856" height="38.09815950920245" as="geometry" />
        </mxCell>
        <mxCell id="DTtLAvjLUg3e7SLb6-8Q-123" value="" style="shape=mxgraph.cisco.routers.router;html=1;dashed=0;fillColor=#036897;strokeColor=#ffffff;strokeWidth=2;verticalLabelPosition=bottom;verticalAlign=top;rounded=1;shadow=0;comic=0;fontFamily=Verdana;fontSize=12;" vertex="1" parent="DTtLAvjLUg3e7SLb6-8Q-285">
          <mxGeometry x="384.0579710144928" y="1927.766871165644" width="76.81159420289856" height="49.527607361963184" as="geometry" />
        </mxCell>
        <mxCell id="DTtLAvjLUg3e7SLb6-8Q-124" value="Cloud" style="ellipse;shape=cloud;whiteSpace=wrap;html=1;rounded=1;shadow=0;comic=0;strokeWidth=1;fontFamily=Verdana;fontSize=12;" vertex="1" parent="DTtLAvjLUg3e7SLb6-8Q-285">
          <mxGeometry x="537.6811594202901" y="1977.2944785276075" width="76.81159420289856" height="38.09815950920245" as="geometry" />
        </mxCell>
        <mxCell id="DTtLAvjLUg3e7SLb6-8Q-125" style="edgeStyle=none;html=1;labelBackgroundColor=none;startFill=0;endArrow=none;endFill=0;strokeWidth=2;fontFamily=Verdana;fontSize=12;exitX=0.07;exitY=0.4;exitDx=0;exitDy=0;exitPerimeter=0;entryX=0.5;entryY=1;entryDx=0;entryDy=0;entryPerimeter=0;rounded=1;" edge="1" parent="DTtLAvjLUg3e7SLb6-8Q-285" source="DTtLAvjLUg3e7SLb6-8Q-124" target="DTtLAvjLUg3e7SLb6-8Q-123">
          <mxGeometry relative="1" as="geometry">
            <mxPoint x="829.5652173913045" y="1958.245398773006" as="sourcePoint" />
            <mxPoint x="460.8695652173914" y="1951.895705521472" as="targetPoint" />
            <Array as="points" />
          </mxGeometry>
        </mxCell>
        <mxCell id="DTtLAvjLUg3e7SLb6-8Q-126" style="edgeStyle=none;html=1;labelBackgroundColor=none;startFill=0;endArrow=none;endFill=0;strokeWidth=2;fontFamily=Verdana;fontSize=12;entryX=0.5;entryY=0;entryDx=0;entryDy=0;entryPerimeter=0;exitX=0.16;exitY=0.55;exitDx=0;exitDy=0;exitPerimeter=0;rounded=1;" edge="1" parent="DTtLAvjLUg3e7SLb6-8Q-285" source="DTtLAvjLUg3e7SLb6-8Q-122" target="DTtLAvjLUg3e7SLb6-8Q-123">
          <mxGeometry relative="1" as="geometry">
            <mxPoint x="582.231884057971" y="1912.5276073619632" as="sourcePoint" />
            <mxPoint x="399.42028985507255" y="1894.7484662576687" as="targetPoint" />
            <Array as="points" />
          </mxGeometry>
        </mxCell>
        <mxCell id="DTtLAvjLUg3e7SLb6-8Q-127" value="001 - Carpina" style="whiteSpace=wrap;html=1;rounded=1;shadow=0;comic=0;strokeWidth=1;fontFamily=Verdana;fontSize=14;fillColor=#f5f5f5;strokeColor=none;verticalAlign=top;fontStyle=1" vertex="1" parent="DTtLAvjLUg3e7SLb6-8Q-285">
          <mxGeometry x="752.753623188406" width="307.24637681159425" height="253.9877300613497" as="geometry" />
        </mxCell>
        <mxCell id="DTtLAvjLUg3e7SLb6-8Q-128" value="Cloud" style="ellipse;shape=cloud;whiteSpace=wrap;html=1;rounded=1;shadow=0;comic=0;strokeWidth=1;fontFamily=Verdana;fontSize=12;" vertex="1" parent="DTtLAvjLUg3e7SLb6-8Q-285">
          <mxGeometry x="937.1014492753625" y="50.79754601226994" width="76.81159420289856" height="38.09815950920245" as="geometry" />
        </mxCell>
        <mxCell id="DTtLAvjLUg3e7SLb6-8Q-129" value="" style="shape=mxgraph.cisco.routers.router;html=1;dashed=0;fillColor=#036897;strokeColor=#ffffff;strokeWidth=2;verticalLabelPosition=bottom;verticalAlign=top;rounded=1;shadow=0;comic=0;fontFamily=Verdana;fontSize=12;" vertex="1" parent="DTtLAvjLUg3e7SLb6-8Q-285">
          <mxGeometry x="783.4782608695654" y="109.21472392638039" width="76.81159420289856" height="49.527607361963184" as="geometry" />
        </mxCell>
        <mxCell id="DTtLAvjLUg3e7SLb6-8Q-130" value="Cloud" style="ellipse;shape=cloud;whiteSpace=wrap;html=1;rounded=1;shadow=0;comic=0;strokeWidth=1;fontFamily=Verdana;fontSize=12;" vertex="1" parent="DTtLAvjLUg3e7SLb6-8Q-285">
          <mxGeometry x="937.1014492753625" y="158.74233128834354" width="76.81159420289856" height="38.09815950920245" as="geometry" />
        </mxCell>
        <mxCell id="DTtLAvjLUg3e7SLb6-8Q-131" style="edgeStyle=none;html=1;labelBackgroundColor=none;startFill=0;endArrow=none;endFill=0;strokeWidth=2;fontFamily=Verdana;fontSize=12;exitX=0.07;exitY=0.4;exitDx=0;exitDy=0;exitPerimeter=0;entryX=0.5;entryY=1;entryDx=0;entryDy=0;entryPerimeter=0;rounded=1;" edge="1" parent="DTtLAvjLUg3e7SLb6-8Q-285" source="DTtLAvjLUg3e7SLb6-8Q-130" target="DTtLAvjLUg3e7SLb6-8Q-129">
          <mxGeometry relative="1" as="geometry">
            <mxPoint x="1228.985507246377" y="139.69325153374234" as="sourcePoint" />
            <mxPoint x="860.2898550724639" y="133.3435582822086" as="targetPoint" />
            <Array as="points" />
          </mxGeometry>
        </mxCell>
        <mxCell id="DTtLAvjLUg3e7SLb6-8Q-132" style="edgeStyle=none;html=1;labelBackgroundColor=none;startFill=0;endArrow=none;endFill=0;strokeWidth=2;fontFamily=Verdana;fontSize=12;entryX=0.5;entryY=0;entryDx=0;entryDy=0;entryPerimeter=0;exitX=0.16;exitY=0.55;exitDx=0;exitDy=0;exitPerimeter=0;rounded=1;" edge="1" parent="DTtLAvjLUg3e7SLb6-8Q-285" source="DTtLAvjLUg3e7SLb6-8Q-128" target="DTtLAvjLUg3e7SLb6-8Q-129">
          <mxGeometry relative="1" as="geometry">
            <mxPoint x="981.6521739130437" y="93.97546012269939" as="sourcePoint" />
            <mxPoint x="798.8405797101451" y="76.1963190184049" as="targetPoint" />
            <Array as="points" />
          </mxGeometry>
        </mxCell>
        <mxCell id="DTtLAvjLUg3e7SLb6-8Q-133" value="002-Vitoria" style="whiteSpace=wrap;html=1;rounded=1;shadow=0;comic=0;strokeWidth=1;fontFamily=Verdana;fontSize=14;verticalAlign=top;fontStyle=1;fillColor=#f5f5f5;fontColor=#333333;strokeColor=#666666;" vertex="1" parent="DTtLAvjLUg3e7SLb6-8Q-285">
          <mxGeometry x="752.753623188406" y="355.5828220858896" width="307.24637681159425" height="253.9877300613497" as="geometry" />
        </mxCell>
        <mxCell id="DTtLAvjLUg3e7SLb6-8Q-134" value="Cloud" style="ellipse;shape=cloud;whiteSpace=wrap;html=1;rounded=1;shadow=0;comic=0;strokeWidth=1;fontFamily=Verdana;fontSize=12;" vertex="1" parent="DTtLAvjLUg3e7SLb6-8Q-285">
          <mxGeometry x="937.1014492753625" y="406.3803680981595" width="76.81159420289856" height="38.09815950920245" as="geometry" />
        </mxCell>
        <mxCell id="DTtLAvjLUg3e7SLb6-8Q-135" value="" style="shape=mxgraph.cisco.routers.router;html=1;dashed=0;fillColor=#036897;strokeColor=#ffffff;strokeWidth=2;verticalLabelPosition=bottom;verticalAlign=top;rounded=1;shadow=0;comic=0;fontFamily=Verdana;fontSize=12;" vertex="1" parent="DTtLAvjLUg3e7SLb6-8Q-285">
          <mxGeometry x="783.4782608695654" y="464.79754601226995" width="76.81159420289856" height="49.527607361963184" as="geometry" />
        </mxCell>
        <mxCell id="DTtLAvjLUg3e7SLb6-8Q-136" value="Cloud" style="ellipse;shape=cloud;whiteSpace=wrap;html=1;rounded=1;shadow=0;comic=0;strokeWidth=1;fontFamily=Verdana;fontSize=12;" vertex="1" parent="DTtLAvjLUg3e7SLb6-8Q-285">
          <mxGeometry x="937.1014492753625" y="514.3251533742331" width="76.81159420289856" height="38.09815950920245" as="geometry" />
        </mxCell>
        <mxCell id="DTtLAvjLUg3e7SLb6-8Q-137" style="edgeStyle=none;html=1;labelBackgroundColor=none;startFill=0;endArrow=none;endFill=0;strokeWidth=2;fontFamily=Verdana;fontSize=12;exitX=0.07;exitY=0.4;exitDx=0;exitDy=0;exitPerimeter=0;entryX=0.5;entryY=1;entryDx=0;entryDy=0;entryPerimeter=0;rounded=1;" edge="1" parent="DTtLAvjLUg3e7SLb6-8Q-285" source="DTtLAvjLUg3e7SLb6-8Q-136" target="DTtLAvjLUg3e7SLb6-8Q-135">
          <mxGeometry relative="1" as="geometry">
            <mxPoint x="1228.985507246377" y="495.2760736196319" as="sourcePoint" />
            <mxPoint x="860.2898550724639" y="488.92638036809814" as="targetPoint" />
            <Array as="points" />
          </mxGeometry>
        </mxCell>
        <mxCell id="DTtLAvjLUg3e7SLb6-8Q-138" style="edgeStyle=none;html=1;labelBackgroundColor=none;startFill=0;endArrow=none;endFill=0;strokeWidth=2;fontFamily=Verdana;fontSize=12;entryX=0.5;entryY=0;entryDx=0;entryDy=0;entryPerimeter=0;exitX=0.16;exitY=0.55;exitDx=0;exitDy=0;exitPerimeter=0;rounded=1;" edge="1" parent="DTtLAvjLUg3e7SLb6-8Q-285" source="DTtLAvjLUg3e7SLb6-8Q-134" target="DTtLAvjLUg3e7SLb6-8Q-135">
          <mxGeometry relative="1" as="geometry">
            <mxPoint x="981.6521739130437" y="449.558282208589" as="sourcePoint" />
            <mxPoint x="798.8405797101451" y="431.7791411042945" as="targetPoint" />
            <Array as="points" />
          </mxGeometry>
        </mxCell>
        <mxCell id="DTtLAvjLUg3e7SLb6-8Q-139" value="003-Arcoverde" style="whiteSpace=wrap;html=1;rounded=1;shadow=0;comic=0;strokeWidth=1;fontFamily=Verdana;fontSize=14;fillColor=#f5f5f5;strokeColor=none;verticalAlign=top;fontStyle=1" vertex="1" parent="DTtLAvjLUg3e7SLb6-8Q-285">
          <mxGeometry x="752.753623188406" y="736.564417177914" width="307.24637681159425" height="253.9877300613497" as="geometry" />
        </mxCell>
        <mxCell id="DTtLAvjLUg3e7SLb6-8Q-140" value="Cloud" style="ellipse;shape=cloud;whiteSpace=wrap;html=1;rounded=1;shadow=0;comic=0;strokeWidth=1;fontFamily=Verdana;fontSize=12;" vertex="1" parent="DTtLAvjLUg3e7SLb6-8Q-285">
          <mxGeometry x="937.1014492753625" y="787.3619631901839" width="76.81159420289856" height="38.09815950920245" as="geometry" />
        </mxCell>
        <mxCell id="DTtLAvjLUg3e7SLb6-8Q-141" value="" style="shape=mxgraph.cisco.routers.router;html=1;dashed=0;fillColor=#036897;strokeColor=#ffffff;strokeWidth=2;verticalLabelPosition=bottom;verticalAlign=top;rounded=1;shadow=0;comic=0;fontFamily=Verdana;fontSize=12;" vertex="1" parent="DTtLAvjLUg3e7SLb6-8Q-285">
          <mxGeometry x="783.4782608695654" y="845.7791411042945" width="76.81159420289856" height="49.527607361963184" as="geometry" />
        </mxCell>
        <mxCell id="DTtLAvjLUg3e7SLb6-8Q-142" value="Cloud" style="ellipse;shape=cloud;whiteSpace=wrap;html=1;rounded=1;shadow=0;comic=0;strokeWidth=1;fontFamily=Verdana;fontSize=12;" vertex="1" parent="DTtLAvjLUg3e7SLb6-8Q-285">
          <mxGeometry x="937.1014492753625" y="895.3067484662577" width="76.81159420289856" height="38.09815950920245" as="geometry" />
        </mxCell>
        <mxCell id="DTtLAvjLUg3e7SLb6-8Q-143" style="edgeStyle=none;html=1;labelBackgroundColor=none;startFill=0;endArrow=none;endFill=0;strokeWidth=2;fontFamily=Verdana;fontSize=12;exitX=0.07;exitY=0.4;exitDx=0;exitDy=0;exitPerimeter=0;entryX=0.5;entryY=1;entryDx=0;entryDy=0;entryPerimeter=0;rounded=1;" edge="1" parent="DTtLAvjLUg3e7SLb6-8Q-285" source="DTtLAvjLUg3e7SLb6-8Q-142" target="DTtLAvjLUg3e7SLb6-8Q-141">
          <mxGeometry relative="1" as="geometry">
            <mxPoint x="1228.985507246377" y="876.2576687116564" as="sourcePoint" />
            <mxPoint x="860.2898550724639" y="869.9079754601228" as="targetPoint" />
            <Array as="points" />
          </mxGeometry>
        </mxCell>
        <mxCell id="DTtLAvjLUg3e7SLb6-8Q-144" style="edgeStyle=none;html=1;labelBackgroundColor=none;startFill=0;endArrow=none;endFill=0;strokeWidth=2;fontFamily=Verdana;fontSize=12;entryX=0.5;entryY=0;entryDx=0;entryDy=0;entryPerimeter=0;exitX=0.16;exitY=0.55;exitDx=0;exitDy=0;exitPerimeter=0;rounded=1;" edge="1" parent="DTtLAvjLUg3e7SLb6-8Q-285" source="DTtLAvjLUg3e7SLb6-8Q-140" target="DTtLAvjLUg3e7SLb6-8Q-141">
          <mxGeometry relative="1" as="geometry">
            <mxPoint x="981.6521739130437" y="830.5398773006135" as="sourcePoint" />
            <mxPoint x="798.8405797101451" y="812.760736196319" as="targetPoint" />
            <Array as="points" />
          </mxGeometry>
        </mxCell>
        <mxCell id="DTtLAvjLUg3e7SLb6-8Q-145" value="004-SantaCruz" style="whiteSpace=wrap;html=1;rounded=1;shadow=0;comic=0;strokeWidth=1;fontFamily=Verdana;fontSize=14;fillColor=#f5f5f5;strokeColor=none;verticalAlign=top;fontStyle=1" vertex="1" parent="DTtLAvjLUg3e7SLb6-8Q-285">
          <mxGeometry x="752.753623188406" y="1104.8466257668713" width="307.24637681159425" height="253.9877300613497" as="geometry" />
        </mxCell>
        <mxCell id="DTtLAvjLUg3e7SLb6-8Q-146" value="Cloud" style="ellipse;shape=cloud;whiteSpace=wrap;html=1;rounded=1;shadow=0;comic=0;strokeWidth=1;fontFamily=Verdana;fontSize=12;" vertex="1" parent="DTtLAvjLUg3e7SLb6-8Q-285">
          <mxGeometry x="937.1014492753625" y="1155.644171779141" width="76.81159420289856" height="38.09815950920245" as="geometry" />
        </mxCell>
        <mxCell id="DTtLAvjLUg3e7SLb6-8Q-147" value="" style="shape=mxgraph.cisco.routers.router;html=1;dashed=0;fillColor=#036897;strokeColor=#ffffff;strokeWidth=2;verticalLabelPosition=bottom;verticalAlign=top;rounded=1;shadow=0;comic=0;fontFamily=Verdana;fontSize=12;" vertex="1" parent="DTtLAvjLUg3e7SLb6-8Q-285">
          <mxGeometry x="783.4782608695654" y="1214.0613496932517" width="76.81159420289856" height="49.527607361963184" as="geometry" />
        </mxCell>
        <mxCell id="DTtLAvjLUg3e7SLb6-8Q-148" value="Cloud" style="ellipse;shape=cloud;whiteSpace=wrap;html=1;rounded=1;shadow=0;comic=0;strokeWidth=1;fontFamily=Verdana;fontSize=12;" vertex="1" parent="DTtLAvjLUg3e7SLb6-8Q-285">
          <mxGeometry x="937.1014492753625" y="1263.5889570552147" width="76.81159420289856" height="38.09815950920245" as="geometry" />
        </mxCell>
        <mxCell id="DTtLAvjLUg3e7SLb6-8Q-149" style="edgeStyle=none;html=1;labelBackgroundColor=none;startFill=0;endArrow=none;endFill=0;strokeWidth=2;fontFamily=Verdana;fontSize=12;exitX=0.07;exitY=0.4;exitDx=0;exitDy=0;exitPerimeter=0;entryX=0.5;entryY=1;entryDx=0;entryDy=0;entryPerimeter=0;rounded=1;" edge="1" parent="DTtLAvjLUg3e7SLb6-8Q-285" source="DTtLAvjLUg3e7SLb6-8Q-148" target="DTtLAvjLUg3e7SLb6-8Q-147">
          <mxGeometry relative="1" as="geometry">
            <mxPoint x="1228.985507246377" y="1244.5398773006136" as="sourcePoint" />
            <mxPoint x="860.2898550724639" y="1238.19018404908" as="targetPoint" />
            <Array as="points" />
          </mxGeometry>
        </mxCell>
        <mxCell id="DTtLAvjLUg3e7SLb6-8Q-150" style="edgeStyle=none;html=1;labelBackgroundColor=none;startFill=0;endArrow=none;endFill=0;strokeWidth=2;fontFamily=Verdana;fontSize=12;entryX=0.5;entryY=0;entryDx=0;entryDy=0;entryPerimeter=0;exitX=0.16;exitY=0.55;exitDx=0;exitDy=0;exitPerimeter=0;rounded=1;" edge="1" parent="DTtLAvjLUg3e7SLb6-8Q-285" source="DTtLAvjLUg3e7SLb6-8Q-146" target="DTtLAvjLUg3e7SLb6-8Q-147">
          <mxGeometry relative="1" as="geometry">
            <mxPoint x="981.6521739130437" y="1198.8220858895706" as="sourcePoint" />
            <mxPoint x="798.8405797101451" y="1181.042944785276" as="targetPoint" />
            <Array as="points" />
          </mxGeometry>
        </mxCell>
        <mxCell id="DTtLAvjLUg3e7SLb6-8Q-151" value="005-Bongi" style="whiteSpace=wrap;html=1;rounded=1;shadow=0;comic=0;strokeWidth=1;fontFamily=Verdana;fontSize=14;fillColor=#f5f5f5;strokeColor=none;verticalAlign=top;fontStyle=1" vertex="1" parent="DTtLAvjLUg3e7SLb6-8Q-285">
          <mxGeometry x="752.753623188406" y="1460.4294478527606" width="307.24637681159425" height="253.9877300613497" as="geometry" />
        </mxCell>
        <mxCell id="DTtLAvjLUg3e7SLb6-8Q-152" value="Cloud" style="ellipse;shape=cloud;whiteSpace=wrap;html=1;rounded=1;shadow=0;comic=0;strokeWidth=1;fontFamily=Verdana;fontSize=12;" vertex="1" parent="DTtLAvjLUg3e7SLb6-8Q-285">
          <mxGeometry x="937.1014492753625" y="1511.2269938650306" width="76.81159420289856" height="38.09815950920245" as="geometry" />
        </mxCell>
        <mxCell id="DTtLAvjLUg3e7SLb6-8Q-153" value="" style="shape=mxgraph.cisco.routers.router;html=1;dashed=0;fillColor=#036897;strokeColor=#ffffff;strokeWidth=2;verticalLabelPosition=bottom;verticalAlign=top;rounded=1;shadow=0;comic=0;fontFamily=Verdana;fontSize=12;" vertex="1" parent="DTtLAvjLUg3e7SLb6-8Q-285">
          <mxGeometry x="783.4782608695654" y="1569.644171779141" width="76.81159420289856" height="49.527607361963184" as="geometry" />
        </mxCell>
        <mxCell id="DTtLAvjLUg3e7SLb6-8Q-154" value="Cloud" style="ellipse;shape=cloud;whiteSpace=wrap;html=1;rounded=1;shadow=0;comic=0;strokeWidth=1;fontFamily=Verdana;fontSize=12;" vertex="1" parent="DTtLAvjLUg3e7SLb6-8Q-285">
          <mxGeometry x="937.1014492753625" y="1619.1717791411043" width="76.81159420289856" height="38.09815950920245" as="geometry" />
        </mxCell>
        <mxCell id="DTtLAvjLUg3e7SLb6-8Q-155" style="edgeStyle=none;html=1;labelBackgroundColor=none;startFill=0;endArrow=none;endFill=0;strokeWidth=2;fontFamily=Verdana;fontSize=12;exitX=0.07;exitY=0.4;exitDx=0;exitDy=0;exitPerimeter=0;entryX=0.5;entryY=1;entryDx=0;entryDy=0;entryPerimeter=0;rounded=1;" edge="1" parent="DTtLAvjLUg3e7SLb6-8Q-285" source="DTtLAvjLUg3e7SLb6-8Q-154" target="DTtLAvjLUg3e7SLb6-8Q-153">
          <mxGeometry relative="1" as="geometry">
            <mxPoint x="1228.985507246377" y="1600.1226993865032" as="sourcePoint" />
            <mxPoint x="860.2898550724639" y="1593.7730061349694" as="targetPoint" />
            <Array as="points" />
          </mxGeometry>
        </mxCell>
        <mxCell id="DTtLAvjLUg3e7SLb6-8Q-156" style="edgeStyle=none;html=1;labelBackgroundColor=none;startFill=0;endArrow=none;endFill=0;strokeWidth=2;fontFamily=Verdana;fontSize=12;entryX=0.5;entryY=0;entryDx=0;entryDy=0;entryPerimeter=0;exitX=0.16;exitY=0.55;exitDx=0;exitDy=0;exitPerimeter=0;rounded=1;" edge="1" parent="DTtLAvjLUg3e7SLb6-8Q-285" source="DTtLAvjLUg3e7SLb6-8Q-152" target="DTtLAvjLUg3e7SLb6-8Q-153">
          <mxGeometry relative="1" as="geometry">
            <mxPoint x="981.6521739130437" y="1554.40490797546" as="sourcePoint" />
            <mxPoint x="798.8405797101451" y="1536.6257668711658" as="targetPoint" />
            <Array as="points" />
          </mxGeometry>
        </mxCell>
        <mxCell id="DTtLAvjLUg3e7SLb6-8Q-157" value="006-Paulista" style="whiteSpace=wrap;html=1;rounded=1;shadow=0;comic=0;strokeWidth=1;fontFamily=Verdana;fontSize=14;fillColor=#f5f5f5;strokeColor=none;verticalAlign=top;fontStyle=1" vertex="1" parent="DTtLAvjLUg3e7SLb6-8Q-285">
          <mxGeometry x="752.753623188406" y="1816.0122699386502" width="307.24637681159425" height="253.9877300613497" as="geometry" />
        </mxCell>
        <mxCell id="DTtLAvjLUg3e7SLb6-8Q-158" value="Cloud" style="ellipse;shape=cloud;whiteSpace=wrap;html=1;rounded=1;shadow=0;comic=0;strokeWidth=1;fontFamily=Verdana;fontSize=12;" vertex="1" parent="DTtLAvjLUg3e7SLb6-8Q-285">
          <mxGeometry x="937.1014492753625" y="1869.3496932515338" width="76.81159420289856" height="38.09815950920245" as="geometry" />
        </mxCell>
        <mxCell id="DTtLAvjLUg3e7SLb6-8Q-159" value="" style="shape=mxgraph.cisco.routers.router;html=1;dashed=0;fillColor=#036897;strokeColor=#ffffff;strokeWidth=2;verticalLabelPosition=bottom;verticalAlign=top;rounded=1;shadow=0;comic=0;fontFamily=Verdana;fontSize=12;" vertex="1" parent="DTtLAvjLUg3e7SLb6-8Q-285">
          <mxGeometry x="783.4782608695654" y="1927.766871165644" width="76.81159420289856" height="49.527607361963184" as="geometry" />
        </mxCell>
        <mxCell id="DTtLAvjLUg3e7SLb6-8Q-160" value="Cloud" style="ellipse;shape=cloud;whiteSpace=wrap;html=1;rounded=1;shadow=0;comic=0;strokeWidth=1;fontFamily=Verdana;fontSize=12;" vertex="1" parent="DTtLAvjLUg3e7SLb6-8Q-285">
          <mxGeometry x="937.1014492753625" y="1977.2944785276075" width="76.81159420289856" height="38.09815950920245" as="geometry" />
        </mxCell>
        <mxCell id="DTtLAvjLUg3e7SLb6-8Q-161" style="edgeStyle=none;html=1;labelBackgroundColor=none;startFill=0;endArrow=none;endFill=0;strokeWidth=2;fontFamily=Verdana;fontSize=12;exitX=0.07;exitY=0.4;exitDx=0;exitDy=0;exitPerimeter=0;entryX=0.5;entryY=1;entryDx=0;entryDy=0;entryPerimeter=0;rounded=1;" edge="1" parent="DTtLAvjLUg3e7SLb6-8Q-285" source="DTtLAvjLUg3e7SLb6-8Q-160" target="DTtLAvjLUg3e7SLb6-8Q-159">
          <mxGeometry relative="1" as="geometry">
            <mxPoint x="1228.985507246377" y="1958.245398773006" as="sourcePoint" />
            <mxPoint x="860.2898550724639" y="1951.895705521472" as="targetPoint" />
            <Array as="points" />
          </mxGeometry>
        </mxCell>
        <mxCell id="DTtLAvjLUg3e7SLb6-8Q-162" style="edgeStyle=none;html=1;labelBackgroundColor=none;startFill=0;endArrow=none;endFill=0;strokeWidth=2;fontFamily=Verdana;fontSize=12;entryX=0.5;entryY=0;entryDx=0;entryDy=0;entryPerimeter=0;exitX=0.16;exitY=0.55;exitDx=0;exitDy=0;exitPerimeter=0;rounded=1;" edge="1" parent="DTtLAvjLUg3e7SLb6-8Q-285" source="DTtLAvjLUg3e7SLb6-8Q-158" target="DTtLAvjLUg3e7SLb6-8Q-159">
          <mxGeometry relative="1" as="geometry">
            <mxPoint x="981.6521739130437" y="1912.5276073619632" as="sourcePoint" />
            <mxPoint x="798.8405797101451" y="1894.7484662576687" as="targetPoint" />
            <Array as="points" />
          </mxGeometry>
        </mxCell>
        <mxCell id="DTtLAvjLUg3e7SLb6-8Q-284" value="" style="group" vertex="1" connectable="0" parent="DTtLAvjLUg3e7SLb6-8Q-285">
          <mxGeometry width="307.24637681159425" height="253.9877300613497" as="geometry" />
        </mxCell>
        <mxCell id="DTtLAvjLUg3e7SLb6-8Q-34" value="&lt;font style=&quot;font-size: 24px;&quot;&gt;001 - Carpina&lt;/font&gt;" style="whiteSpace=wrap;html=1;rounded=1;shadow=0;comic=0;strokeWidth=1;fontFamily=Verdana;fontSize=14;fillColor=#f5f5f5;strokeColor=none;verticalAlign=top;fontStyle=1" vertex="1" parent="DTtLAvjLUg3e7SLb6-8Q-284">
          <mxGeometry width="307.24637681159425" height="253.9877300613497" as="geometry" />
        </mxCell>
        <mxCell id="DTtLAvjLUg3e7SLb6-8Q-35" value="&lt;font style=&quot;font-size: 16px;&quot;&gt;Cloud&lt;/font&gt;" style="ellipse;shape=cloud;whiteSpace=wrap;html=1;rounded=1;shadow=0;comic=0;strokeWidth=1;fontFamily=Verdana;fontSize=12;" vertex="1" parent="DTtLAvjLUg3e7SLb6-8Q-284">
          <mxGeometry x="184.34782608695653" y="50.79754601226994" width="76.81159420289856" height="38.09815950920245" as="geometry" />
        </mxCell>
        <mxCell id="DTtLAvjLUg3e7SLb6-8Q-36" value="" style="shape=mxgraph.cisco.routers.router;html=1;dashed=0;fillColor=#036897;strokeColor=#ffffff;strokeWidth=2;verticalLabelPosition=bottom;verticalAlign=top;rounded=1;shadow=0;comic=0;fontFamily=Verdana;fontSize=12;" vertex="1" parent="DTtLAvjLUg3e7SLb6-8Q-284">
          <mxGeometry x="30.72463768115942" y="109.21472392638039" width="76.81159420289856" height="49.527607361963184" as="geometry" />
        </mxCell>
        <mxCell id="DTtLAvjLUg3e7SLb6-8Q-37" value="Cloud" style="ellipse;shape=cloud;whiteSpace=wrap;html=1;rounded=1;shadow=0;comic=0;strokeWidth=1;fontFamily=Verdana;fontSize=12;" vertex="1" parent="DTtLAvjLUg3e7SLb6-8Q-284">
          <mxGeometry x="184.34782608695653" y="158.74233128834354" width="76.81159420289856" height="38.09815950920245" as="geometry" />
        </mxCell>
        <mxCell id="DTtLAvjLUg3e7SLb6-8Q-41" style="edgeStyle=none;html=1;labelBackgroundColor=none;startFill=0;endArrow=none;endFill=0;strokeWidth=2;fontFamily=Verdana;fontSize=12;exitX=0.07;exitY=0.4;exitDx=0;exitDy=0;exitPerimeter=0;entryX=0.5;entryY=1;entryDx=0;entryDy=0;entryPerimeter=0;rounded=1;" edge="1" parent="DTtLAvjLUg3e7SLb6-8Q-284" source="DTtLAvjLUg3e7SLb6-8Q-37" target="DTtLAvjLUg3e7SLb6-8Q-36">
          <mxGeometry relative="1" as="geometry">
            <mxPoint x="476.2318840579711" y="139.69325153374234" as="sourcePoint" />
            <mxPoint x="107.53623188405798" y="133.3435582822086" as="targetPoint" />
            <Array as="points" />
          </mxGeometry>
        </mxCell>
        <mxCell id="DTtLAvjLUg3e7SLb6-8Q-44" style="edgeStyle=none;html=1;labelBackgroundColor=none;startFill=0;endArrow=none;endFill=0;strokeWidth=2;fontFamily=Verdana;fontSize=12;entryX=0.5;entryY=0;entryDx=0;entryDy=0;entryPerimeter=0;exitX=0.16;exitY=0.55;exitDx=0;exitDy=0;exitPerimeter=0;rounded=1;" edge="1" parent="DTtLAvjLUg3e7SLb6-8Q-284" source="DTtLAvjLUg3e7SLb6-8Q-35" target="DTtLAvjLUg3e7SLb6-8Q-36">
          <mxGeometry relative="1" as="geometry">
            <mxPoint x="228.89855072463772" y="93.97546012269939" as="sourcePoint" />
            <mxPoint x="46.08695652173913" y="76.1963190184049" as="targetPoint" />
            <Array as="points" />
          </mxGeometry>
        </mxCell>
        <mxCell id="DTtLAvjLUg3e7SLb6-8Q-355" value="001 - Carpina" style="whiteSpace=wrap;html=1;rounded=1;shadow=0;comic=0;strokeWidth=1;fontFamily=Verdana;fontSize=14;fillColor=#f5f5f5;strokeColor=none;verticalAlign=top;fontStyle=1" vertex="1" parent="1">
          <mxGeometry x="160.00362318840598" y="10" width="307.24637681159425" height="253.9877300613497" as="geometry" />
        </mxCell>
        <mxCell id="DTtLAvjLUg3e7SLb6-8Q-356" value="Cloud" style="ellipse;shape=cloud;whiteSpace=wrap;html=1;rounded=1;shadow=0;comic=0;strokeWidth=1;fontFamily=Verdana;fontSize=12;" vertex="1" parent="1">
          <mxGeometry x="344.3514492753625" y="60.79754601226995" width="76.81159420289856" height="38.09815950920245" as="geometry" />
        </mxCell>
        <mxCell id="DTtLAvjLUg3e7SLb6-8Q-357" value="" style="shape=mxgraph.cisco.routers.router;html=1;dashed=0;fillColor=#036897;strokeColor=#ffffff;strokeWidth=2;verticalLabelPosition=bottom;verticalAlign=top;rounded=1;shadow=0;comic=0;fontFamily=Verdana;fontSize=12;" vertex="1" parent="1">
          <mxGeometry x="190.72826086956536" y="119.21472392638037" width="76.81159420289856" height="49.527607361963184" as="geometry" />
        </mxCell>
        <mxCell id="DTtLAvjLUg3e7SLb6-8Q-358" value="Cloud" style="ellipse;shape=cloud;whiteSpace=wrap;html=1;rounded=1;shadow=0;comic=0;strokeWidth=1;fontFamily=Verdana;fontSize=12;" vertex="1" parent="1">
          <mxGeometry x="344.3514492753625" y="168.74233128834354" width="76.81159420289856" height="38.09815950920245" as="geometry" />
        </mxCell>
        <mxCell id="DTtLAvjLUg3e7SLb6-8Q-359" style="edgeStyle=none;html=1;labelBackgroundColor=none;startFill=0;endArrow=none;endFill=0;strokeWidth=2;fontFamily=Verdana;fontSize=12;exitX=0.07;exitY=0.4;exitDx=0;exitDy=0;exitPerimeter=0;entryX=0.5;entryY=1;entryDx=0;entryDy=0;entryPerimeter=0;rounded=1;" edge="1" parent="1" source="DTtLAvjLUg3e7SLb6-8Q-358" target="DTtLAvjLUg3e7SLb6-8Q-357">
          <mxGeometry relative="1" as="geometry">
            <mxPoint x="636.235507246377" y="149.69325153374234" as="sourcePoint" />
            <mxPoint x="267.53985507246387" y="143.3435582822086" as="targetPoint" />
            <Array as="points" />
          </mxGeometry>
        </mxCell>
        <mxCell id="DTtLAvjLUg3e7SLb6-8Q-360" style="edgeStyle=none;html=1;labelBackgroundColor=none;startFill=0;endArrow=none;endFill=0;strokeWidth=2;fontFamily=Verdana;fontSize=12;entryX=0.5;entryY=0;entryDx=0;entryDy=0;entryPerimeter=0;exitX=0.16;exitY=0.55;exitDx=0;exitDy=0;exitPerimeter=0;rounded=1;" edge="1" parent="1" source="DTtLAvjLUg3e7SLb6-8Q-356" target="DTtLAvjLUg3e7SLb6-8Q-357">
          <mxGeometry relative="1" as="geometry">
            <mxPoint x="388.9021739130437" y="103.97546012269939" as="sourcePoint" />
            <mxPoint x="206.0905797101451" y="86.1963190184049" as="targetPoint" />
            <Array as="points" />
          </mxGeometry>
        </mxCell>
        <mxCell id="DTtLAvjLUg3e7SLb6-8Q-361" value="002-Vitoria" style="whiteSpace=wrap;html=1;rounded=1;shadow=0;comic=0;strokeWidth=1;fontFamily=Verdana;fontSize=14;fillColor=#f5f5f5;strokeColor=none;verticalAlign=top;fontStyle=1" vertex="1" parent="1">
          <mxGeometry x="160.00362318840598" y="365.5828220858896" width="307.24637681159425" height="253.9877300613497" as="geometry" />
        </mxCell>
        <mxCell id="DTtLAvjLUg3e7SLb6-8Q-362" value="Cloud" style="ellipse;shape=cloud;whiteSpace=wrap;html=1;rounded=1;shadow=0;comic=0;strokeWidth=1;fontFamily=Verdana;fontSize=12;" vertex="1" parent="1">
          <mxGeometry x="344.3514492753625" y="416.3803680981595" width="76.81159420289856" height="38.09815950920245" as="geometry" />
        </mxCell>
        <mxCell id="DTtLAvjLUg3e7SLb6-8Q-363" value="" style="shape=mxgraph.cisco.routers.router;html=1;dashed=0;fillColor=#036897;strokeColor=#ffffff;strokeWidth=2;verticalLabelPosition=bottom;verticalAlign=top;rounded=1;shadow=0;comic=0;fontFamily=Verdana;fontSize=12;" vertex="1" parent="1">
          <mxGeometry x="190.72826086956536" y="474.79754601226995" width="76.81159420289856" height="49.527607361963184" as="geometry" />
        </mxCell>
        <mxCell id="DTtLAvjLUg3e7SLb6-8Q-364" value="Cloud" style="ellipse;shape=cloud;whiteSpace=wrap;html=1;rounded=1;shadow=0;comic=0;strokeWidth=1;fontFamily=Verdana;fontSize=12;" vertex="1" parent="1">
          <mxGeometry x="344.3514492753625" y="524.3251533742331" width="76.81159420289856" height="38.09815950920245" as="geometry" />
        </mxCell>
        <mxCell id="DTtLAvjLUg3e7SLb6-8Q-365" style="edgeStyle=none;html=1;labelBackgroundColor=none;startFill=0;endArrow=none;endFill=0;strokeWidth=2;fontFamily=Verdana;fontSize=12;exitX=0.07;exitY=0.4;exitDx=0;exitDy=0;exitPerimeter=0;entryX=0.5;entryY=1;entryDx=0;entryDy=0;entryPerimeter=0;rounded=1;" edge="1" parent="1" source="DTtLAvjLUg3e7SLb6-8Q-364" target="DTtLAvjLUg3e7SLb6-8Q-363">
          <mxGeometry relative="1" as="geometry">
            <mxPoint x="636.235507246377" y="505.2760736196319" as="sourcePoint" />
            <mxPoint x="267.53985507246387" y="498.92638036809814" as="targetPoint" />
            <Array as="points" />
          </mxGeometry>
        </mxCell>
        <mxCell id="DTtLAvjLUg3e7SLb6-8Q-366" style="edgeStyle=none;html=1;labelBackgroundColor=none;startFill=0;endArrow=none;endFill=0;strokeWidth=2;fontFamily=Verdana;fontSize=12;entryX=0.5;entryY=0;entryDx=0;entryDy=0;entryPerimeter=0;exitX=0.16;exitY=0.55;exitDx=0;exitDy=0;exitPerimeter=0;rounded=1;" edge="1" parent="1" source="DTtLAvjLUg3e7SLb6-8Q-362" target="DTtLAvjLUg3e7SLb6-8Q-363">
          <mxGeometry relative="1" as="geometry">
            <mxPoint x="388.9021739130437" y="459.558282208589" as="sourcePoint" />
            <mxPoint x="206.0905797101451" y="441.7791411042945" as="targetPoint" />
            <Array as="points" />
          </mxGeometry>
        </mxCell>
        <mxCell id="DTtLAvjLUg3e7SLb6-8Q-367" value="003-Arcoverde" style="whiteSpace=wrap;html=1;rounded=1;shadow=0;comic=0;strokeWidth=1;fontFamily=Verdana;fontSize=14;fillColor=#f5f5f5;strokeColor=none;verticalAlign=top;fontStyle=1" vertex="1" parent="1">
          <mxGeometry x="160.00362318840598" y="746.564417177914" width="307.24637681159425" height="253.9877300613497" as="geometry" />
        </mxCell>
        <mxCell id="DTtLAvjLUg3e7SLb6-8Q-368" value="Cloud" style="ellipse;shape=cloud;whiteSpace=wrap;html=1;rounded=1;shadow=0;comic=0;strokeWidth=1;fontFamily=Verdana;fontSize=12;" vertex="1" parent="1">
          <mxGeometry x="344.3514492753625" y="797.3619631901839" width="76.81159420289856" height="38.09815950920245" as="geometry" />
        </mxCell>
        <mxCell id="DTtLAvjLUg3e7SLb6-8Q-369" value="" style="shape=mxgraph.cisco.routers.router;html=1;dashed=0;fillColor=#036897;strokeColor=#ffffff;strokeWidth=2;verticalLabelPosition=bottom;verticalAlign=top;rounded=1;shadow=0;comic=0;fontFamily=Verdana;fontSize=12;" vertex="1" parent="1">
          <mxGeometry x="190.72826086956536" y="855.7791411042945" width="76.81159420289856" height="49.527607361963184" as="geometry" />
        </mxCell>
        <mxCell id="DTtLAvjLUg3e7SLb6-8Q-370" value="Cloud" style="ellipse;shape=cloud;whiteSpace=wrap;html=1;rounded=1;shadow=0;comic=0;strokeWidth=1;fontFamily=Verdana;fontSize=12;" vertex="1" parent="1">
          <mxGeometry x="344.3514492753625" y="905.3067484662577" width="76.81159420289856" height="38.09815950920245" as="geometry" />
        </mxCell>
        <mxCell id="DTtLAvjLUg3e7SLb6-8Q-371" style="edgeStyle=none;html=1;labelBackgroundColor=none;startFill=0;endArrow=none;endFill=0;strokeWidth=2;fontFamily=Verdana;fontSize=12;exitX=0.07;exitY=0.4;exitDx=0;exitDy=0;exitPerimeter=0;entryX=0.5;entryY=1;entryDx=0;entryDy=0;entryPerimeter=0;rounded=1;" edge="1" parent="1" source="DTtLAvjLUg3e7SLb6-8Q-370" target="DTtLAvjLUg3e7SLb6-8Q-369">
          <mxGeometry relative="1" as="geometry">
            <mxPoint x="636.235507246377" y="886.2576687116564" as="sourcePoint" />
            <mxPoint x="267.53985507246387" y="879.9079754601228" as="targetPoint" />
            <Array as="points" />
          </mxGeometry>
        </mxCell>
        <mxCell id="DTtLAvjLUg3e7SLb6-8Q-372" style="edgeStyle=none;html=1;labelBackgroundColor=none;startFill=0;endArrow=none;endFill=0;strokeWidth=2;fontFamily=Verdana;fontSize=12;entryX=0.5;entryY=0;entryDx=0;entryDy=0;entryPerimeter=0;exitX=0.16;exitY=0.55;exitDx=0;exitDy=0;exitPerimeter=0;rounded=1;" edge="1" parent="1" source="DTtLAvjLUg3e7SLb6-8Q-368" target="DTtLAvjLUg3e7SLb6-8Q-369">
          <mxGeometry relative="1" as="geometry">
            <mxPoint x="388.9021739130437" y="840.5398773006135" as="sourcePoint" />
            <mxPoint x="206.0905797101451" y="822.760736196319" as="targetPoint" />
            <Array as="points" />
          </mxGeometry>
        </mxCell>
        <mxCell id="DTtLAvjLUg3e7SLb6-8Q-373" value="004-SantaCruz" style="whiteSpace=wrap;html=1;rounded=1;shadow=0;comic=0;strokeWidth=1;fontFamily=Verdana;fontSize=14;fillColor=#f5f5f5;strokeColor=none;verticalAlign=top;fontStyle=1" vertex="1" parent="1">
          <mxGeometry x="160.00362318840598" y="1114.8466257668713" width="307.24637681159425" height="253.9877300613497" as="geometry" />
        </mxCell>
        <mxCell id="DTtLAvjLUg3e7SLb6-8Q-374" value="Cloud" style="ellipse;shape=cloud;whiteSpace=wrap;html=1;rounded=1;shadow=0;comic=0;strokeWidth=1;fontFamily=Verdana;fontSize=12;" vertex="1" parent="1">
          <mxGeometry x="344.3514492753625" y="1165.644171779141" width="76.81159420289856" height="38.09815950920245" as="geometry" />
        </mxCell>
        <mxCell id="DTtLAvjLUg3e7SLb6-8Q-375" value="" style="shape=mxgraph.cisco.routers.router;html=1;dashed=0;fillColor=#036897;strokeColor=#ffffff;strokeWidth=2;verticalLabelPosition=bottom;verticalAlign=top;rounded=1;shadow=0;comic=0;fontFamily=Verdana;fontSize=12;" vertex="1" parent="1">
          <mxGeometry x="190.72826086956536" y="1224.0613496932517" width="76.81159420289856" height="49.527607361963184" as="geometry" />
        </mxCell>
        <mxCell id="DTtLAvjLUg3e7SLb6-8Q-376" value="Cloud" style="ellipse;shape=cloud;whiteSpace=wrap;html=1;rounded=1;shadow=0;comic=0;strokeWidth=1;fontFamily=Verdana;fontSize=12;" vertex="1" parent="1">
          <mxGeometry x="344.3514492753625" y="1273.5889570552147" width="76.81159420289856" height="38.09815950920245" as="geometry" />
        </mxCell>
        <mxCell id="DTtLAvjLUg3e7SLb6-8Q-377" style="edgeStyle=none;html=1;labelBackgroundColor=none;startFill=0;endArrow=none;endFill=0;strokeWidth=2;fontFamily=Verdana;fontSize=12;exitX=0.07;exitY=0.4;exitDx=0;exitDy=0;exitPerimeter=0;entryX=0.5;entryY=1;entryDx=0;entryDy=0;entryPerimeter=0;rounded=1;" edge="1" parent="1" source="DTtLAvjLUg3e7SLb6-8Q-376" target="DTtLAvjLUg3e7SLb6-8Q-375">
          <mxGeometry relative="1" as="geometry">
            <mxPoint x="636.235507246377" y="1254.5398773006136" as="sourcePoint" />
            <mxPoint x="267.53985507246387" y="1248.19018404908" as="targetPoint" />
            <Array as="points" />
          </mxGeometry>
        </mxCell>
        <mxCell id="DTtLAvjLUg3e7SLb6-8Q-378" style="edgeStyle=none;html=1;labelBackgroundColor=none;startFill=0;endArrow=none;endFill=0;strokeWidth=2;fontFamily=Verdana;fontSize=12;entryX=0.5;entryY=0;entryDx=0;entryDy=0;entryPerimeter=0;exitX=0.16;exitY=0.55;exitDx=0;exitDy=0;exitPerimeter=0;rounded=1;" edge="1" parent="1" source="DTtLAvjLUg3e7SLb6-8Q-374" target="DTtLAvjLUg3e7SLb6-8Q-375">
          <mxGeometry relative="1" as="geometry">
            <mxPoint x="388.9021739130437" y="1208.8220858895706" as="sourcePoint" />
            <mxPoint x="206.0905797101451" y="1191.042944785276" as="targetPoint" />
            <Array as="points" />
          </mxGeometry>
        </mxCell>
        <mxCell id="DTtLAvjLUg3e7SLb6-8Q-379" value="005-Bongi" style="whiteSpace=wrap;html=1;rounded=1;shadow=0;comic=0;strokeWidth=1;fontFamily=Verdana;fontSize=14;fillColor=#f5f5f5;strokeColor=none;verticalAlign=top;fontStyle=1" vertex="1" parent="1">
          <mxGeometry x="160.00362318840598" y="1470.4294478527606" width="307.24637681159425" height="253.9877300613497" as="geometry" />
        </mxCell>
        <mxCell id="DTtLAvjLUg3e7SLb6-8Q-380" value="Cloud" style="ellipse;shape=cloud;whiteSpace=wrap;html=1;rounded=1;shadow=0;comic=0;strokeWidth=1;fontFamily=Verdana;fontSize=12;" vertex="1" parent="1">
          <mxGeometry x="344.3514492753625" y="1521.2269938650306" width="76.81159420289856" height="38.09815950920245" as="geometry" />
        </mxCell>
        <mxCell id="DTtLAvjLUg3e7SLb6-8Q-381" value="" style="shape=mxgraph.cisco.routers.router;html=1;dashed=0;fillColor=#036897;strokeColor=#ffffff;strokeWidth=2;verticalLabelPosition=bottom;verticalAlign=top;rounded=1;shadow=0;comic=0;fontFamily=Verdana;fontSize=12;" vertex="1" parent="1">
          <mxGeometry x="190.72826086956536" y="1579.644171779141" width="76.81159420289856" height="49.527607361963184" as="geometry" />
        </mxCell>
        <mxCell id="DTtLAvjLUg3e7SLb6-8Q-382" value="Cloud" style="ellipse;shape=cloud;whiteSpace=wrap;html=1;rounded=1;shadow=0;comic=0;strokeWidth=1;fontFamily=Verdana;fontSize=12;" vertex="1" parent="1">
          <mxGeometry x="344.3514492753625" y="1629.1717791411043" width="76.81159420289856" height="38.09815950920245" as="geometry" />
        </mxCell>
        <mxCell id="DTtLAvjLUg3e7SLb6-8Q-383" style="edgeStyle=none;html=1;labelBackgroundColor=none;startFill=0;endArrow=none;endFill=0;strokeWidth=2;fontFamily=Verdana;fontSize=12;exitX=0.07;exitY=0.4;exitDx=0;exitDy=0;exitPerimeter=0;entryX=0.5;entryY=1;entryDx=0;entryDy=0;entryPerimeter=0;rounded=1;" edge="1" parent="1" source="DTtLAvjLUg3e7SLb6-8Q-382" target="DTtLAvjLUg3e7SLb6-8Q-381">
          <mxGeometry relative="1" as="geometry">
            <mxPoint x="636.235507246377" y="1610.1226993865032" as="sourcePoint" />
            <mxPoint x="267.53985507246387" y="1603.7730061349694" as="targetPoint" />
            <Array as="points" />
          </mxGeometry>
        </mxCell>
        <mxCell id="DTtLAvjLUg3e7SLb6-8Q-384" style="edgeStyle=none;html=1;labelBackgroundColor=none;startFill=0;endArrow=none;endFill=0;strokeWidth=2;fontFamily=Verdana;fontSize=12;entryX=0.5;entryY=0;entryDx=0;entryDy=0;entryPerimeter=0;exitX=0.16;exitY=0.55;exitDx=0;exitDy=0;exitPerimeter=0;rounded=1;" edge="1" parent="1" source="DTtLAvjLUg3e7SLb6-8Q-380" target="DTtLAvjLUg3e7SLb6-8Q-381">
          <mxGeometry relative="1" as="geometry">
            <mxPoint x="388.9021739130437" y="1564.40490797546" as="sourcePoint" />
            <mxPoint x="206.0905797101451" y="1546.6257668711658" as="targetPoint" />
            <Array as="points" />
          </mxGeometry>
        </mxCell>
        <mxCell id="DTtLAvjLUg3e7SLb6-8Q-385" value="006-Paulista" style="whiteSpace=wrap;html=1;rounded=1;shadow=0;comic=0;strokeWidth=1;fontFamily=Verdana;fontSize=14;fillColor=#f5f5f5;strokeColor=none;verticalAlign=top;fontStyle=1" vertex="1" parent="1">
          <mxGeometry x="160.00362318840598" y="1826.0122699386502" width="307.24637681159425" height="253.9877300613497" as="geometry" />
        </mxCell>
        <mxCell id="DTtLAvjLUg3e7SLb6-8Q-386" value="Cloud" style="ellipse;shape=cloud;whiteSpace=wrap;html=1;rounded=1;shadow=0;comic=0;strokeWidth=1;fontFamily=Verdana;fontSize=12;" vertex="1" parent="1">
          <mxGeometry x="344.3514492753625" y="1879.3496932515338" width="76.81159420289856" height="38.09815950920245" as="geometry" />
        </mxCell>
        <mxCell id="DTtLAvjLUg3e7SLb6-8Q-387" value="" style="shape=mxgraph.cisco.routers.router;html=1;dashed=0;fillColor=#036897;strokeColor=#ffffff;strokeWidth=2;verticalLabelPosition=bottom;verticalAlign=top;rounded=1;shadow=0;comic=0;fontFamily=Verdana;fontSize=12;" vertex="1" parent="1">
          <mxGeometry x="190.72826086956536" y="1937.766871165644" width="76.81159420289856" height="49.527607361963184" as="geometry" />
        </mxCell>
        <mxCell id="DTtLAvjLUg3e7SLb6-8Q-388" value="Cloud" style="ellipse;shape=cloud;whiteSpace=wrap;html=1;rounded=1;shadow=0;comic=0;strokeWidth=1;fontFamily=Verdana;fontSize=12;" vertex="1" parent="1">
          <mxGeometry x="344.3514492753625" y="1987.2944785276075" width="76.81159420289856" height="38.09815950920245" as="geometry" />
        </mxCell>
        <mxCell id="DTtLAvjLUg3e7SLb6-8Q-389" style="edgeStyle=none;html=1;labelBackgroundColor=none;startFill=0;endArrow=none;endFill=0;strokeWidth=2;fontFamily=Verdana;fontSize=12;exitX=0.07;exitY=0.4;exitDx=0;exitDy=0;exitPerimeter=0;entryX=0.5;entryY=1;entryDx=0;entryDy=0;entryPerimeter=0;rounded=1;" edge="1" parent="1" source="DTtLAvjLUg3e7SLb6-8Q-388" target="DTtLAvjLUg3e7SLb6-8Q-387">
          <mxGeometry relative="1" as="geometry">
            <mxPoint x="636.235507246377" y="1968.245398773006" as="sourcePoint" />
            <mxPoint x="267.53985507246387" y="1961.895705521472" as="targetPoint" />
            <Array as="points" />
          </mxGeometry>
        </mxCell>
        <mxCell id="DTtLAvjLUg3e7SLb6-8Q-390" style="edgeStyle=none;html=1;labelBackgroundColor=none;startFill=0;endArrow=none;endFill=0;strokeWidth=2;fontFamily=Verdana;fontSize=12;entryX=0.5;entryY=0;entryDx=0;entryDy=0;entryPerimeter=0;exitX=0.16;exitY=0.55;exitDx=0;exitDy=0;exitPerimeter=0;rounded=1;" edge="1" parent="1" source="DTtLAvjLUg3e7SLb6-8Q-386" target="DTtLAvjLUg3e7SLb6-8Q-387">
          <mxGeometry relative="1" as="geometry">
            <mxPoint x="388.9021739130437" y="1922.5276073619632" as="sourcePoint" />
            <mxPoint x="206.0905797101451" y="1904.7484662576687" as="targetPoint" />
            <Array as="points" />
          </mxGeometry>
        </mxCell>
        <mxCell id="DTtLAvjLUg3e7SLb6-8Q-391" style="edgeStyle=none;html=1;labelBackgroundColor=none;startFill=0;endArrow=none;endFill=0;strokeWidth=3;fontFamily=Verdana;fontSize=12;entryX=0.377;entryY=0.992;entryDx=0;entryDy=0;entryPerimeter=0;rounded=1;exitX=0.5;exitY=0;exitDx=0;exitDy=0;exitPerimeter=0;" edge="1" parent="1" source="DTtLAvjLUg3e7SLb6-8Q-82" target="DTtLAvjLUg3e7SLb6-8Q-36">
          <mxGeometry relative="1" as="geometry">
            <mxPoint x="870" y="350" as="sourcePoint" />
            <mxPoint x="-871" y="179" as="targetPoint" />
            <Array as="points">
              <mxPoint x="900" y="350" />
              <mxPoint x="740" y="350" />
              <mxPoint x="-890" y="350" />
            </Array>
          </mxGeometry>
        </mxCell>
        <mxCell id="DTtLAvjLUg3e7SLb6-8Q-392" style="edgeStyle=none;html=1;labelBackgroundColor=none;startFill=0;endArrow=none;endFill=0;strokeWidth=3;fontFamily=Verdana;fontSize=12;entryX=0.5;entryY=1;entryDx=0;entryDy=0;entryPerimeter=0;rounded=1;exitX=0.5;exitY=0;exitDx=0;exitDy=0;exitPerimeter=0;" edge="1" parent="1" source="DTtLAvjLUg3e7SLb6-8Q-82" target="DTtLAvjLUg3e7SLb6-8Q-93">
          <mxGeometry relative="1" as="geometry">
            <mxPoint x="1010" y="330" as="sourcePoint" />
            <mxPoint x="-530" y="178" as="targetPoint" />
            <Array as="points">
              <mxPoint x="910" y="330" />
              <mxPoint x="620" y="330" />
              <mxPoint x="230" y="330" />
              <mxPoint x="-528" y="330" />
            </Array>
          </mxGeometry>
        </mxCell>
        <mxCell id="DTtLAvjLUg3e7SLb6-8Q-394" style="edgeStyle=none;html=1;labelBackgroundColor=none;startFill=0;endArrow=none;endFill=0;strokeWidth=3;fontFamily=Verdana;fontSize=12;entryX=0.5;entryY=1;entryDx=0;entryDy=0;entryPerimeter=0;rounded=1;exitX=0.5;exitY=0;exitDx=0;exitDy=0;exitPerimeter=0;" edge="1" parent="1" source="DTtLAvjLUg3e7SLb6-8Q-82" target="DTtLAvjLUg3e7SLb6-8Q-129">
          <mxGeometry relative="1" as="geometry">
            <mxPoint x="1260" y="460" as="sourcePoint" />
            <mxPoint x="-140" y="179.08" as="targetPoint" />
            <Array as="points">
              <mxPoint x="920" y="310" />
              <mxPoint x="820" y="310" />
              <mxPoint x="630" y="310" />
              <mxPoint x="-128" y="310" />
            </Array>
          </mxGeometry>
        </mxCell>
        <mxCell id="DTtLAvjLUg3e7SLb6-8Q-395" style="edgeStyle=none;html=1;labelBackgroundColor=none;startFill=0;endArrow=none;endFill=0;strokeWidth=3;fontFamily=Verdana;fontSize=12;rounded=1;exitX=0.5;exitY=0;exitDx=0;exitDy=0;exitPerimeter=0;entryX=0.5;entryY=1;entryDx=0;entryDy=0;entryPerimeter=0;" edge="1" parent="1" source="DTtLAvjLUg3e7SLb6-8Q-82" target="DTtLAvjLUg3e7SLb6-8Q-357">
          <mxGeometry relative="1" as="geometry">
            <mxPoint x="1668" y="757" as="sourcePoint" />
            <mxPoint x="230" y="130" as="targetPoint" />
            <Array as="points">
              <mxPoint x="930" y="291" />
              <mxPoint x="230" y="291" />
            </Array>
          </mxGeometry>
        </mxCell>
        <mxCell id="DTtLAvjLUg3e7SLb6-8Q-396" style="edgeStyle=none;html=1;labelBackgroundColor=none;startFill=0;endArrow=none;endFill=0;strokeWidth=3;fontFamily=Verdana;fontSize=12;entryX=0.5;entryY=1;entryDx=0;entryDy=0;entryPerimeter=0;rounded=1;exitX=0;exitY=0.5;exitDx=0;exitDy=0;exitPerimeter=0;" edge="1" parent="1" source="DTtLAvjLUg3e7SLb6-8Q-82" target="DTtLAvjLUg3e7SLb6-8Q-49">
          <mxGeometry relative="1" as="geometry">
            <mxPoint x="910" y="1165.6399999999999" as="sourcePoint" />
            <mxPoint x="-890" y="537.64" as="targetPoint" />
            <Array as="points">
              <mxPoint x="730" y="816" />
              <mxPoint x="730" y="720" />
              <mxPoint x="-881" y="720" />
            </Array>
          </mxGeometry>
        </mxCell>
        <mxCell id="DTtLAvjLUg3e7SLb6-8Q-397" style="edgeStyle=none;html=1;labelBackgroundColor=none;startFill=0;endArrow=none;endFill=0;strokeWidth=3;fontFamily=Verdana;fontSize=12;entryX=0.5;entryY=1;entryDx=0;entryDy=0;entryPerimeter=0;rounded=1;exitX=0;exitY=0.5;exitDx=0;exitDy=0;exitPerimeter=0;" edge="1" parent="1" source="DTtLAvjLUg3e7SLb6-8Q-82" target="DTtLAvjLUg3e7SLb6-8Q-99">
          <mxGeometry relative="1" as="geometry">
            <mxPoint x="1226" y="826" as="sourcePoint" />
            <mxPoint x="-540" y="534" as="targetPoint" />
            <Array as="points">
              <mxPoint x="740" y="810" />
              <mxPoint x="740" y="700" />
              <mxPoint x="670" y="700" />
              <mxPoint x="270" y="700" />
              <mxPoint x="-528" y="700" />
            </Array>
          </mxGeometry>
        </mxCell>
        <mxCell id="DTtLAvjLUg3e7SLb6-8Q-398" style="edgeStyle=none;html=1;labelBackgroundColor=none;startFill=0;endArrow=none;endFill=0;strokeWidth=3;fontFamily=Verdana;fontSize=12;entryX=0.5;entryY=1;entryDx=0;entryDy=0;entryPerimeter=0;rounded=1;exitX=0;exitY=0.5;exitDx=0;exitDy=0;exitPerimeter=0;" edge="1" parent="1" source="DTtLAvjLUg3e7SLb6-8Q-82" target="DTtLAvjLUg3e7SLb6-8Q-135">
          <mxGeometry relative="1" as="geometry">
            <mxPoint x="1283" y="826" as="sourcePoint" />
            <mxPoint x="-130" y="534" as="targetPoint" />
            <Array as="points">
              <mxPoint x="750" y="800" />
              <mxPoint x="750" y="680" />
              <mxPoint x="660" y="680" />
              <mxPoint x="270" y="680" />
              <mxPoint x="-130" y="680" />
            </Array>
          </mxGeometry>
        </mxCell>
        <mxCell id="DTtLAvjLUg3e7SLb6-8Q-399" style="edgeStyle=none;html=1;labelBackgroundColor=none;startFill=0;endArrow=none;endFill=0;strokeWidth=3;fontFamily=Verdana;fontSize=12;entryX=0.5;entryY=1;entryDx=0;entryDy=0;entryPerimeter=0;rounded=1;exitX=0;exitY=0.5;exitDx=0;exitDy=0;exitPerimeter=0;" edge="1" parent="1" source="DTtLAvjLUg3e7SLb6-8Q-82" target="DTtLAvjLUg3e7SLb6-8Q-363">
          <mxGeometry relative="1" as="geometry">
            <mxPoint x="1245" y="835.46" as="sourcePoint" />
            <mxPoint x="232" y="543.46" as="targetPoint" />
            <Array as="points">
              <mxPoint x="760" y="790" />
              <mxPoint x="760" y="660" />
              <mxPoint x="630" y="660" />
              <mxPoint x="229" y="660" />
            </Array>
          </mxGeometry>
        </mxCell>
      </root>
    </mxGraphModel>
  </diagram>
</mxfile>
